<svg width="32" height="32" viewBox="0 0 32 32" fill="none" xmlns="http://www.w3.org/2000/svg">
    <path
      fill-rule="evenodd"
      clip-rule="evenodd"
      d="M11.3698 9.02778C11.3698 7.90787 12.2777 7 13.3976 7C14.5175 7 15.4253 7.90787 15.4253 9.02778C15.4253 10.1477 14.5175 11.0556 13.3976 11.0556H9C8.72386 11.0556 8.5 11.2794 8.5 11.5556C8.5 11.8317 8.72386 12.0556 9 12.0556H13.3976C15.0698 12.0556 16.4253 10.7 16.4253 9.02778C16.4253 7.35558 15.0698 6 13.3976 6C11.7254 6 10.3698 7.35558 10.3698 9.02778C10.3698 9.30392 10.5936 9.52778 10.8698 9.52778C11.1459 9.52778 11.3698 9.30392 11.3698 9.02778ZM20.3976 11.0555C19.2777 11.0555 18.3698 11.9634 18.3698 13.0833C18.3698 13.3595 18.1459 13.5833 17.8698 13.5833C17.5936 13.5833 17.3698 13.3595 17.3698 13.0833C17.3698 11.4111 18.7254 10.0555 20.3976 10.0555C22.0698 10.0555 23.4253 11.4111 23.4253 13.0833C23.4253 14.7555 22.0698 16.1111 20.3976 16.1111H9C8.72386 16.1111 8.5 15.8872 8.5 15.6111C8.5 15.335 8.72386 15.1111 9 15.1111H20.3976C21.5175 15.1111 22.4253 14.2032 22.4253 13.0833C22.4253 11.9634 21.5175 11.0555 20.3976 11.0555ZM20.3976 24.1666C19.2777 24.1666 18.3698 23.2588 18.3698 22.1388C18.3698 21.8627 18.1459 21.6388 17.8698 21.6388C17.5936 21.6388 17.3698 21.8627 17.3698 22.1388C17.3698 23.811 18.7254 25.1666 20.3976 25.1666C22.0698 25.1666 23.4253 23.811 23.4253 22.1388C23.4253 20.4667 22.0698 19.1111 20.3976 19.1111H9C8.72386 19.1111 8.5 19.3349 8.5 19.6111C8.5 19.8872 8.72386 20.1111 9 20.1111H20.3976C21.5175 20.1111 22.4253 21.0189 22.4253 22.1388C22.4253 23.2588 21.5175 24.1666 20.3976 24.1666Z"
      fill="currentColor" />
</svg>
