<svg width="32" height="32" viewBox="0 0 32 32" fill="none" xmlns="http://www.w3.org/2000/svg">
    <path
      fill-rule="evenodd"
      clip-rule="evenodd"
      d="M15.8031 8.54038C15.9289 8.48654 16.0711 8.48654 16.1969 8.54038L23.1969 11.5384C23.3808 11.6172 23.5 11.798 23.5 11.998V20C23.5 20.2 23.3808 20.3808 23.197 20.4596L16.197 23.4596C16.0712 23.5135 15.9288 23.5135 15.803 23.4596L8.80304 20.4596C8.6192 20.3808 8.5 20.2 8.5 20V11.998C8.5 11.798 8.61925 11.6172 8.80315 11.5384L15.8031 8.54038ZM15.5 15.326L9.5 12.7579V19.6703L15.5 22.2417V15.326ZM16.5 22.2417L22.5 19.6703V12.7565L16.5 15.3296V22.2417ZM21.73 11.998L16 9.54393L10.27 11.998L16 14.4522L21.73 11.998Z"
      fill="currentColor" />
</svg>
