<svg width="32" height="32" viewBox="0 0 32 32" fill="none" xmlns="http://www.w3.org/2000/svg">
    <path
      d="M16.697 9.04043C16.5712 8.98652 16.4288 8.98652 16.303 9.04043L9.30304 12.0404C9.1192 12.1192 9 12.3 9 12.5C9 12.7 9.1192 12.8808 9.30304 12.9596L16.303 15.9596C16.4288 16.0135 16.5712 16.0135 16.697 15.9596L23.697 12.9596C23.8808 12.8808 24 12.7 24 12.5C24 12.3 23.8808 12.1192 23.697 12.0404L16.697 9.04043Z"
      fill="currentColor" />
    <path
      d="M16.5 17.956L9.69696 15.0404L9.30304 15.9596L16.5 19.044L23.697 15.9596L23.303 15.0404L16.5 17.956Z"
      fill="currentColor" />
    <path
      d="M9.69696 18.0404L9.30304 18.9596L16.5 22.044L23.697 18.9596L23.303 18.0404L16.5 20.956L9.69696 18.0404Z"
      fill="currentColor" />
</svg>
