<svg width="32" height="32" viewBox="0 0 32 32" fill="none" xmlns="http://www.w3.org/2000/svg">
    <path
      d="M15.0264 15.5C15.0264 14.6727 15.6859 14.0005 16.499 14.0005C17.312 14.0005 17.9715 14.6727 17.9715 15.5C17.9715 16.3274 17.312 16.9997 16.499 16.9997C15.6859 16.9997 15.0264 16.3274 15.0264 15.5Z"
      fill="currentColor" />
    <path
      fill-rule="evenodd"
      clip-rule="evenodd"
      d="M14.5684 8H18.4288L18.5923 8.83668L18.5929 8.83954L18.8619 10.175C19.2454 10.3474 19.6011 10.5608 19.9301 10.8024L21.2745 10.3442L22.0714 10.0926L22.4875 10.8198L23.5747 12.674L24 13.4174L23.3666 13.9802L22.3582 14.8545C22.3899 15.0507 22.4192 15.2723 22.4192 15.5C22.4192 15.7277 22.3899 15.9492 22.3582 16.1455L23.3711 17.0238L24 17.5826L23.572 18.3305L22.4877 20.18L22.0714 20.9093L21.2642 20.6524L19.9301 20.1976C19.6011 20.4392 19.2454 20.6526 18.8619 20.825L18.5929 22.1604L18.5923 22.1633L18.4288 23H14.5684L14.4064 22.1614L14.1364 20.8251C13.7528 20.6527 13.3971 20.4392 13.0681 20.1976L11.7246 20.6555L10.926 20.9095L10.5112 20.1796L9.42298 18.3251L9 17.5826L9.6315 17.0198L10.6402 16.1452C10.6087 15.9495 10.5789 15.7271 10.5789 15.5C10.5789 15.2729 10.6087 15.0505 10.6402 14.8548L9.62646 13.9758L9.00002 13.4174L9.4262 12.6692L10.5114 10.8202L10.926 10.0923L11.7339 10.3476L13.0681 10.8024C13.3971 10.5608 13.7528 10.3473 14.1364 10.1749L14.4064 8.83847L14.5684 8ZM16.499 12.9999C15.1444 12.9999 14.0447 14.1195 14.0447 15.5C14.0447 16.8806 15.1443 18.0003 16.499 18.0003C17.8536 18.0003 18.9532 16.8806 18.9532 15.5C18.9532 14.1195 17.8535 12.9999 16.499 12.9999Z"
      fill="currentColor" />
</svg>
