<svg width="32" height="32" viewBox="0 0 32 32" fill="none" xmlns="http://www.w3.org/2000/svg">
    <path
      d="M9 15.9847C9 12.2755 11.8849 9.24014 15.5333 9V12.7511C13.9503 12.9775 12.7333 14.339 12.7333 15.9847C12.7333 17.7888 14.1959 19.2514 16 19.2514C16.7338 19.2514 17.411 19.0094 17.9564 18.601L20.6088 21.2535C19.3775 22.3314 17.7651 22.9847 16 22.9847C12.134 22.9847 9 19.8507 9 15.9847Z"
      fill="currentColor" />
    <path
      d="M21.2688 20.5935C22.3467 19.3622 23 17.7497 23 15.9847C23 15.0201 22.8049 14.101 22.452 13.2649L19.0382 14.7821C19.1856 15.1543 19.2667 15.56 19.2667 15.9847C19.2667 16.7184 19.0247 17.3957 18.6163 17.941L21.2688 20.5935Z"
      fill="currentColor" />
    <path
      d="M16.4667 12.7511V9C18.8388 9.15614 20.8882 10.4939 22.0317 12.4303L18.5705 13.9686C18.0633 13.3228 17.3179 12.8729 16.4667 12.7511Z"
      fill="currentColor" />
</svg>
