<svg width="32" height="32" viewBox="0 0 32 32" fill="none" xmlns="http://www.w3.org/2000/svg">
    <path
      fill-rule="evenodd"
      clip-rule="evenodd"
      d="M11.5 9C11.2239 9 11 9.22386 11 9.5V21.5C11 21.7761 11.2239 22 11.5 22H21.5C21.7761 22 22 21.7761 22 21.5V11.7071L19.2929 9H11.5ZM10 9.5C10 8.67157 10.6716 8 11.5 8H19.7071L23 11.2929V21.5C23 22.3284 22.3284 23 21.5 23H11.5C10.6716 23 10 22.3284 10 21.5V9.5ZM13 11.9974H20V12.9974H13V11.9974ZM13 14.9954H20V15.9954H13V14.9954ZM13 18H20V19H13V18Z"
      fill="currentColor" />
</svg>
