<svg width="32" height="32" viewBox="0 0 32 32" fill="none" xmlns="http://www.w3.org/2000/svg">
<path d="M9 18L8.46967 17.4697L8.25 17.6893V18H9ZM18 9L18.5303 8.46967C18.2374 8.17678 17.7626 8.17678 17.4697 8.46967L18 9ZM23 14L23.5303 14.5303C23.8232 14.2374 23.8232 13.7626 23.5303 13.4697L23 14ZM14 23V23.75H14.3107L14.5303 23.5303L14 23ZM9 23H8.25C8.25 23.4142 8.58579 23.75 9 23.75V23ZM9.53033 18.5303L18.5303 9.53033L17.4697 8.46967L8.46967 17.4697L9.53033 18.5303ZM17.4697 9.53033L22.4697 14.5303L23.5303 13.4697L18.5303 8.46967L17.4697 9.53033ZM22.4697 13.4697L13.4697 22.4697L14.5303 23.5303L23.5303 14.5303L22.4697 13.4697ZM14 22.25H9V23.75H14V22.25ZM9.75 23V18H8.25V23H9.75ZM14.4697 12.5303L19.4697 17.5303L20.5303 16.4697L15.5303 11.4697L14.4697 12.5303ZM16.5 23.75H23.5V22.25H16.5V23.75Z" fill="currentColor"/>
</svg>
