<svg xmlns="http://www.w3.org/2000/svg" width="32" height="32" fill="none">
  <path
    fill="currentColor"
    fill-rule="evenodd"
    d="M9.452 15.802a12.013 12.013 0 0 0 1.62 2.093c1.19 1.22 2.857 2.36 4.928 2.36 2.071 0 3.739-1.14 4.927-2.36a12.014 12.014 0 0 0 1.62-2.093 12.014 12.014 0 0 0-1.62-2.093c-1.188-1.22-2.856-2.36-4.927-2.36-2.071 0-3.739 1.14-4.927 2.36a12.013 12.013 0 0 0-1.62 2.093Zm13.873 0 .599-.311-.001-.002-.003-.005-.007-.014-.027-.05a11.811 11.811 0 0 0-.489-.795 13.355 13.355 0 0 0-1.503-1.857C20.585 11.424 18.59 10 16 10c-2.59 0-4.585 1.424-5.894 2.768a13.36 13.36 0 0 0-1.89 2.474 7.757 7.757 0 0 0-.101.178l-.028.05-.007.014-.003.005v.001s-.001.001.598.312l-.599-.31a.675.675 0 0 0 0 .621l.599-.31-.599.31v.002l.001.001.003.005.007.014.028.05a11.815 11.815 0 0 0 .489.795c.339.505.842 1.18 1.502 1.857 1.309 1.344 3.304 2.768 5.894 2.768 2.59 0 4.585-1.424 5.894-2.768a13.355 13.355 0 0 0 1.89-2.474 7.66 7.66 0 0 0 .102-.178l.027-.05.007-.015.003-.004v-.002l-.598-.312Zm0 0 .599.311a.676.676 0 0 0 0-.622l-.599.311Z"
    clip-rule="evenodd" />
  <path fill="currentColor" d="M18 16a2 2 0 1 1-4 0 2 2 0 0 1 4 0Z" />
  <path
    fill="currentColor"
    fill-rule="evenodd"
    d="M16 14.5a1.5 1.5 0 1 0 0 3 1.5 1.5 0 0 0 0-3ZM13.5 16a2.5 2.5 0 1 1 5 0 2.5 2.5 0 0 1-5 0Z"
    clip-rule="evenodd" />
</svg>
