<svg width="32" height="32" viewBox="0 0 32 32" fill="none" xmlns="http://www.w3.org/2000/svg">
    <path
      fill-rule="evenodd"
      clip-rule="evenodd"
      d="M23 11.7333C23 12.3749 22.6514 12.9351 22.1333 13.2348V19.7648C22.6514 20.0645 23 20.6247 23 21.2663C23 22.2235 22.224 22.9996 21.2667 22.9996C20.6141 22.9996 20.0458 22.639 19.7501 22.1062H13.2499C12.9542 22.639 12.3859 22.9996 11.7333 22.9996C10.776 22.9996 10 22.2235 10 21.2663C10 20.6247 10.3486 20.0645 10.8667 19.7648V13.2348C10.3486 12.9351 10 12.3749 10 11.7334C10 10.7761 10.776 10 11.7333 10C12.3637 10 12.9154 10.3365 13.2188 10.8396H19.7812C20.0846 10.3365 20.6363 10 21.2667 10C22.224 10 23 10.776 23 11.7333ZM19.5812 12.1396C19.7306 12.7615 20.2152 13.253 20.8333 13.4121V19.5875C20.2332 19.742 19.7588 20.2099 19.595 20.8062H13.405C13.2412 20.2098 12.7668 19.742 12.1667 19.5875V13.4121C12.7848 13.253 13.2695 12.7615 13.4188 12.1396H19.5812Z"
      fill="currentColor" />
</svg>
