<svg width="32" height="32" viewBox="0 0 32 32" fill="none" xmlns="http://www.w3.org/2000/svg">
    <path
      fill-rule="evenodd"
      clip-rule="evenodd"
      d="M10.5 9C9.67157 9 9 9.67157 9 10.5V13.0525C9.15639 13.0185 9.32468 13 9.5 13H14.7071L16.7071 14.2308H23.5C23.6753 14.2308 23.8436 14.2493 24 14.2833V12.5C24 11.6716 23.3284 11 22.5 11H16.7071L14.7071 9H10.5ZM22.5 22H10.5C9.67157 22 9 21.5867 9 21.0769L8 14.9231C8 14.4133 8.67157 14 9.5 14H14.7071L16.7071 15.2308H23.5C24.3284 15.2308 25 15.644 25 16.1538L24 21.0769C24 21.5867 23.3284 22 22.5 22Z"
      fill="currentColor" />
</svg>
