<svg width="32" height="32" viewBox="0 0 32 32" fill="none" xmlns="http://www.w3.org/2000/svg">
<path d="M12.9723 13.4543V14.477H9.27344V13.4543H12.9723ZM10.2876 19.9997V12.6958C10.2876 12.2867 10.3771 11.9472 10.5561 11.6773C10.7351 11.4046 10.9723 11.2014 11.2678 11.0679C11.5632 10.9316 11.8842 10.8634 12.2308 10.8634C12.4865 10.8634 12.7053 10.8847 12.8871 10.9273C13.0689 10.9671 13.2038 11.004 13.2919 11.0381L12.9936 12.0693C12.9339 12.0523 12.8572 12.0324 12.7635 12.0097C12.6697 11.9841 12.5561 11.9713 12.4226 11.9713C12.1129 11.9713 11.8913 12.048 11.7578 12.2014C11.6271 12.3548 11.5618 12.5764 11.5618 12.8662V19.9997H10.2876Z" fill="currentColor"/>
<path d="M17.3423 13.4543V14.477H13.767V13.4543H17.3423ZM14.7259 11.8861H16V18.0779C16 18.325 16.0369 18.5111 16.1108 18.6361C16.1847 18.7583 16.2798 18.8421 16.3963 18.8875C16.5156 18.9301 16.6449 18.9514 16.7841 18.9514C16.8864 18.9514 16.9759 18.9443 17.0526 18.9301C17.1293 18.9159 17.1889 18.9046 17.2315 18.896L17.4616 19.9486C17.3878 19.977 17.2827 20.0054 17.1463 20.0338C17.0099 20.0651 16.8395 20.0821 16.6349 20.085C16.2997 20.0906 15.9872 20.031 15.6974 19.906C15.4077 19.781 15.1733 19.5878 14.9943 19.3264C14.8153 19.0651 14.7259 18.7369 14.7259 18.3421V11.8861Z" fill="currentColor"/>
<path d="M18.4663 15.6361V14.8776L20.4904 13.1432C20.6751 12.9841 20.8313 12.8406 20.9592 12.7128C21.087 12.585 21.1836 12.46 21.2489 12.3378C21.3171 12.2128 21.3512 12.0793 21.3512 11.9372C21.3512 11.6986 21.2575 11.5111 21.07 11.3747C20.8853 11.2355 20.6566 11.1659 20.3839 11.1659C20.0941 11.1659 19.8612 11.2412 19.685 11.3918C19.5089 11.5423 19.4208 11.7441 19.4208 11.9969H18.4109C18.4109 11.4912 18.5969 11.0878 18.9691 10.7867C19.3413 10.4855 19.8185 10.335 20.4009 10.335C20.793 10.335 21.1353 10.4046 21.4279 10.5438C21.7205 10.683 21.9478 10.8719 22.1097 11.1105C22.2745 11.3492 22.3569 11.6191 22.3569 11.9202C22.3569 12.1588 22.3086 12.3804 22.212 12.585C22.1154 12.7895 21.9648 12.9969 21.7603 13.2071C21.5558 13.4173 21.293 13.6503 20.9719 13.906L19.9833 14.7412V14.7796H22.4805V15.6361H18.4663Z" fill="currentColor"/>
</svg>
