<svg width="32" height="32" viewBox="0 0 32 32" fill="none" xmlns="http://www.w3.org/2000/svg">
    <path
      fill-rule="evenodd"
      clip-rule="evenodd"
      d="M16.0004 8.60039C11.9135 8.60039 8.60039 11.9135 8.60039 16.0004C8.60039 20.0873 11.9135 23.4004 16.0004 23.4004C20.0873 23.4004 23.4004 20.0873 23.4004 16.0004C23.4004 11.9135 20.0873 8.60039 16.0004 8.60039ZM7.40039 16.0004C7.40039 11.2507 11.2507 7.40039 16.0004 7.40039C20.75 7.40039 24.6004 11.2507 24.6004 16.0004C24.6004 20.75 20.75 24.6004 16.0004 24.6004C11.2507 24.6004 7.40039 20.75 7.40039 16.0004ZM16.6004 11.9604V13.1718H15.4004V11.9604H16.6004ZM16.6004 20.0004H15.4004V15.429H16.6004V20.0004Z"
      fill="currentColor" />
</svg>
