<svg width="32" height="32" viewBox="0 0 32 32" fill="none" xmlns="http://www.w3.org/2000/svg">
    <path
      fill-rule="evenodd"
      clip-rule="evenodd"
      d="M16.0667 9H16.9333V9.88256C19.6982 10.0929 21.9063 12.2991 22.1169 15.0628H23V15.9294H22.1169C21.9063 18.693 19.6989 20.9059 16.9333 21.1169V22H16.0667V21.1169C13.3011 20.9059 11.0937 18.693 10.8831 15.9294H10V15.0628H10.8831C11.0937 12.2991 13.3018 10.0929 16.0667 9.88256V9ZM16.0667 10.7522C13.7803 10.9582 11.9591 12.7785 11.7528 15.0628H12.1885C12.174 15.2065 12.1667 15.3524 12.1667 15.5C12.1667 15.6449 12.1738 15.7882 12.1877 15.9294H11.7528C11.9591 18.215 13.7809 20.0405 16.0667 20.2472V19.8119C16.2092 19.8261 16.3538 19.8333 16.5 19.8333C16.6462 19.8333 16.7908 19.8261 16.9333 19.8119V20.2472C19.2191 20.0405 21.0409 18.215 21.2472 15.9294H20.8123C20.8262 15.7882 20.8333 15.6449 20.8333 15.5C20.8333 15.3524 20.826 15.2065 20.8115 15.0628H21.2472C21.0409 12.7785 19.2197 10.9582 16.9333 10.7522V11.1881C16.7908 11.1739 16.6462 11.1667 16.5 11.1667C16.3538 11.1667 16.2092 11.1739 16.0667 11.1881V10.7522ZM16.5008 18.9666C18.4154 18.9666 19.9675 17.4145 19.9675 15.4999C19.9675 13.5854 18.4154 12.0333 16.5008 12.0333C14.5863 12.0333 13.0342 13.5854 13.0342 15.4999C13.0342 17.4145 14.5863 18.9666 16.5008 18.9666Z"
      fill="currentColor" />
</svg>
