<svg width="32" height="32" viewBox="0 0 32 32" fill="none" xmlns="http://www.w3.org/2000/svg">
<path d="M8.85742 19.9997V13.4543H10.0804V14.5196H10.1614C10.2978 14.1588 10.5208 13.8776 10.8304 13.6759C11.1401 13.4713 11.5108 13.3691 11.9426 13.3691C12.3801 13.3691 12.7466 13.4713 13.0421 13.6759C13.3404 13.8804 13.5605 14.1617 13.7026 14.5196H13.7708C13.927 14.1702 14.1756 13.8918 14.5165 13.6844C14.8574 13.4742 15.2637 13.3691 15.7353 13.3691C16.329 13.3691 16.8134 13.5551 17.1884 13.9273C17.5662 14.2994 17.7551 14.8605 17.7551 15.6105V19.9997H16.481V15.7298C16.481 15.2867 16.3603 14.9656 16.1188 14.7668C15.8773 14.5679 15.589 14.4685 15.2537 14.4685C14.839 14.4685 14.5165 14.5963 14.2864 14.852C14.0563 15.1048 13.9412 15.4301 13.9412 15.8279V19.9997H12.6713V15.6489C12.6713 15.2938 12.5605 15.0083 12.339 14.7923C12.1174 14.5764 11.829 14.4685 11.4739 14.4685C11.2324 14.4685 11.0094 14.5324 10.8049 14.6602C10.6032 14.7852 10.4398 14.96 10.3148 15.1844C10.1926 15.4088 10.1316 15.6688 10.1316 15.9642V19.9997H8.85742Z" fill="currentColor"/>
<path d="M19.1774 15.6361V14.8776L21.2015 13.1432C21.3862 12.9841 21.5424 12.8406 21.6703 12.7128C21.7981 12.585 21.8947 12.46 21.96 12.3378C22.0282 12.2128 22.0623 12.0793 22.0623 11.9372C22.0623 11.6986 21.9686 11.5111 21.7811 11.3747C21.5964 11.2355 21.3677 11.1659 21.095 11.1659C20.8052 11.1659 20.5723 11.2412 20.3961 11.3918C20.22 11.5423 20.1319 11.7441 20.1319 11.9969H19.122C19.122 11.4912 19.3081 11.0878 19.6802 10.7867C20.0524 10.4855 20.5297 10.335 21.112 10.335C21.5041 10.335 21.8464 10.4046 22.139 10.5438C22.4316 10.683 22.6589 10.8719 22.8208 11.1105C22.9856 11.3492 23.068 11.6191 23.068 11.9202C23.068 12.1588 23.0197 12.3804 22.9231 12.585C22.8265 12.7895 22.676 12.9969 22.4714 13.2071C22.2669 13.4173 22.0041 13.6503 21.6831 13.906L20.6944 14.7412V14.7796H23.1916V15.6361H19.1774Z" fill="currentColor"/>
</svg>
