<svg width="32" height="32" viewBox="0 0 32 32" fill="none" xmlns="http://www.w3.org/2000/svg">
    <path
      fill-rule="evenodd"
      clip-rule="evenodd"
      d="M11.2002 16.0002C11.2002 15.5584 11.5584 15.2002 12.0002 15.2002C12.442 15.2002 12.8002 15.5584 12.8002 16.0002C12.8002 16.442 12.442 16.8002 12.0002 16.8002C11.5584 16.8002 11.2002 16.442 11.2002 16.0002ZM15.2002 16.0002C15.2002 15.5584 15.5584 15.2002 16.0002 15.2002C16.442 15.2002 16.8002 15.5584 16.8002 16.0002C16.8002 16.442 16.442 16.8002 16.0002 16.8002C15.5584 16.8002 15.2002 16.442 15.2002 16.0002ZM19.2002 16.0002C19.2002 15.5584 19.5584 15.2002 20.0002 15.2002C20.442 15.2002 20.8002 15.5584 20.8002 16.0002C20.8002 16.442 20.442 16.8002 20.0002 16.8002C19.5584 16.8002 19.2002 16.442 19.2002 16.0002Z"
      fill="currentColor" />
</svg>
