<svg width="32" height="32" viewBox="0 0 32 32" fill="none" xmlns="http://www.w3.org/2000/svg">
<path fill-rule="evenodd" clip-rule="evenodd" d="M25 17.213C25 15.1146 23.4681 13.3741 21.4615 13.0488C20.8563 10.5951 18.6407 8.77549 16 8.77549C14.6965 8.77549 13.4966 9.21885 12.5428 9.96302L13.7491 11.1694C14.3871 10.7241 15.1631 10.463 16 10.463C18.1746 10.463 19.9375 12.2259 19.9375 14.4005V14.6818L20.7812 14.6817C22.1793 14.6817 23.3125 15.815 23.3125 17.213C23.3125 18.166 22.7859 18.996 22.0076 19.4278L23.2291 20.6493C24.3011 19.8843 25 18.6303 25 17.213ZM9.69833 11.8915L7.00005 9.19325L8.1933 8L23.3078 23.1144L22.1145 24.3077L19.2385 21.4318H12.0625C9.26657 21.4318 7 19.1652 7 16.3693C7 14.4272 8.09348 12.7406 9.69833 11.8915ZM17.551 19.7443H12.0625C10.1985 19.7443 8.68751 18.2332 8.68751 16.3693C8.68751 14.8844 9.64644 13.6235 10.9788 13.172L17.551 19.7443Z" fill="currentColor"/>
</svg>
