<svg xmlns="http://www.w3.org/2000/svg" width="32" height="32" fill="none">
  <path
    fill="currentColor"
    fill-rule="evenodd"
    d="M11.46 14.352c1.065 1.183 2.69 2.334 5.004 2.334 2.314 0 3.939-1.151 5.003-2.334a9.368 9.368 0 0 0 1.45-2.164 4.865 4.865 0 0 0 .08-.18l.003-.007.464.185.464.187v.002l-.002.004-.006.014a9.025 9.025 0 0 1-.411.821 10.365 10.365 0 0 1-1.298 1.807 9.25 9.25 0 0 1-.599.607l1.706 1.705-.708.707-1.774-1.775a7.305 7.305 0 0 1-3.872 1.405v2.016h-1v-2.015a7.304 7.304 0 0 1-3.872-1.406l-1.774 1.775-.707-.707 1.705-1.705a9.25 9.25 0 0 1-.599-.607 10.369 10.369 0 0 1-1.61-2.407 6.049 6.049 0 0 1-.099-.221l-.005-.014L9 12.374 9 12.371l.464-.186.464-.186v.001l.004.008.015.035a8.086 8.086 0 0 0 .343.677 9.368 9.368 0 0 0 1.17 1.63ZM9.929 12Z"
    clip-rule="evenodd" />
</svg>
