<svg width="32" height="32" viewBox="0 0 32 32" fill="none" xmlns="http://www.w3.org/2000/svg">
    <path
      fill-rule="evenodd"
      clip-rule="evenodd"
      d="M10 9.5C10 8.67157 10.6716 8 11.5 8H19.7071L23 11.2929V16H10V9.5ZM9 16.9935H12V17.9935H9V16.9935ZM16 16.9935H13V17.9935H16V16.9935ZM20 16.9935H17V17.9935H20V16.9935ZM24 16.9935H21V17.9935H24V16.9935ZM23 19H10V21.5C10 22.3284 10.6716 23 11.5 23H21.5C22.3284 23 23 22.3284 23 21.5V19ZM11 20H22V21.5C22 21.7761 21.7761 22 21.5 22H11.5C11.2239 22 11 21.7761 11 21.5V20Z"
      fill="currentColor" />
</svg>
