<svg width="32" height="32" viewBox="0 0 32 32" fill="none" xmlns="http://www.w3.org/2000/svg">
    <path
      fill-rule="evenodd"
      clip-rule="evenodd"
      d="M16.5 8C12.3579 8 9 11.3579 9 15.5C9 19.6421 12.3579 23 16.5 23C20.6421 23 24 19.6421 24 15.5C24 11.3579 20.6421 8 16.5 8ZM10.1973 13.9044C10.0684 14.4149 10 14.9495 10 15.5C10 18.5736 12.1333 21.1489 15 21.8261V21.2071L14 20.2071V18.7071L13 17.7071V16.5C13 16.2239 13.2239 16 13.5 16H17.5C18.3284 16 19 16.6716 19 17.5V18.0118C19.5109 18.0849 19.9151 18.4891 19.9882 19H21.9782C22.625 17.9897 23 16.7886 23 15.5C23 12.7961 21.349 10.4777 19 9.49818V10.5C19 11.3284 18.3285 12 17.5 12H16.5C16.2239 12 16 12.2239 16 12.5C16 13.3284 15.3285 14 14.5 14H14V14.7071L13.5607 15.1464C12.9749 15.7322 12.0252 15.7322 11.4394 15.1464L10.1973 13.9044Z"
      fill="currentColor" />
</svg>
