<svg width="32" height="32" viewBox="0 0 32 32" fill="none" xmlns="http://www.w3.org/2000/svg">
    <path
      fill-rule="evenodd"
      clip-rule="evenodd"
      d="M18 16.4835C18 15.446 17.368 14.5562 16.468 14.1778L16.9421 13.2935C18.1557 13.843 19 15.0647 19 16.4835C19 17.9024 18.1557 19.124 16.9421 19.6735L16.468 18.7892C17.368 18.4109 18 17.521 18 16.4835ZM12 16.4835C12 15.0647 12.8443 13.843 14.0579 13.2935L14.532 14.1778C13.632 14.5562 13 15.446 13 16.4835C13 17.521 13.632 18.4109 14.532 18.7892L14.0579 19.6735C12.8443 19.124 12 17.9024 12 16.4835ZM10 16.4835C10 14.3019 11.2702 12.417 13.1113 11.5279L12.6383 10.6457C10.4833 11.7041 9 13.9206 9 16.4835C9 19.0465 10.4833 21.263 12.6383 22.3213L13.1113 21.4391C11.2702 20.55 10 18.6651 10 16.4835ZM21 16.4835C21 14.3019 19.7298 12.417 17.8887 11.5279L18.3617 10.6457C20.5167 11.7041 22 13.9206 22 16.4835C22 19.0465 20.5167 21.263 18.3617 22.3213L17.8887 21.4391C19.7298 20.55 21 18.6651 21 16.4835ZM24 16.4835C24 13.1579 22.0901 10.2783 19.3073 8.88181L19.7801 8C22.8768 9.56541 25 12.7765 25 16.4835C25 20.1905 22.8768 23.4016 19.7801 24.967L19.3073 24.0852C22.0901 22.6887 24 19.8092 24 16.4835ZM6 16.4835C6 12.7765 8.12324 9.56541 11.2199 8L11.6927 8.88181C8.9099 10.2783 7 13.1579 7 16.4835C7 19.8092 8.9099 22.6887 11.6927 24.0852L11.2199 24.967C8.12324 23.4016 6 20.1905 6 16.4835ZM15.5 17C15.7761 17 16 16.7761 16 16.5C16 16.2239 15.7761 16 15.5 16C15.2239 16 15 16.2239 15 16.5C15 16.7761 15.2239 17 15.5 17Z"
      fill="currentColor" />
</svg>
