<svg width="32" height="32" viewBox="0 0 32 32" fill="none" xmlns="http://www.w3.org/2000/svg">
<path fill-rule="evenodd" clip-rule="evenodd" d="M16 9.54839C12.4369 9.54839 9.54839 12.4369 9.54839 16H8C8 11.5817 11.5817 8 16 8C18.091 8 19.9947 8.80278 21.4194 10.1152V8.25806H22.9677V12.6452H18.5806V11.0968H20.1933C19.0651 10.1308 17.6007 9.54839 16 9.54839ZM16 22.4516C19.5631 22.4516 22.4516 19.5631 22.4516 16H24C24 20.4183 20.4183 24 16 24C13.909 24 12.0053 23.1972 10.5806 21.8848V23.7419H9.03226V19.3548H13.4194V20.9032H11.8067C12.9349 21.8692 14.3993 22.4516 16 22.4516Z" fill="currentColor"/>
</svg>
