<svg width="32" height="32" viewBox="0 0 32 32" fill="none" xmlns="http://www.w3.org/2000/svg">
    <path
      fill-rule="evenodd"
      clip-rule="evenodd"
      d="M9 15.0857C9 11.7247 11.7247 9 15.0857 9C18.4468 9 21.1714 11.7247 21.1714 15.0857C21.1714 16.5502 20.6542 17.8938 19.7924 18.9439L22.8243 21.9757C23.0586 22.2101 23.0586 22.59 22.8243 22.8243C22.59 23.0586 22.2101 23.0586 21.9757 22.8243L18.9439 19.7924C17.8938 20.6542 16.5502 21.1714 15.0857 21.1714C11.7247 21.1714 9 18.4468 9 15.0857ZM15.0857 10.2C12.3874 10.2 10.2 12.3874 10.2 15.0857C10.2 17.784 12.3874 19.9714 15.0857 19.9714C17.784 19.9714 19.9714 17.784 19.9714 15.0857C19.9714 12.3874 17.784 10.2 15.0857 10.2Z"
      fill="currentColor" />
</svg>
