<svg width="32" height="32" viewBox="0 0 32 32" fill="none" xmlns="http://www.w3.org/2000/svg">
<path d="M24 11.5L15.5 11.5M15.5 11.5C15.5 10.3954 14.6046 9.5 13.5 9.5C12.3954 9.5 11.5 10.3954 11.5 11.5M15.5 11.5C15.5 12.6046 14.6046 13.5 13.5 13.5C12.3954 13.5 11.5 12.6046 11.5 11.5M11.5 11.5L9 11.5M24 19.5L21.5 19.5M21.5 19.5C21.5 18.3954 20.6046 17.5 19.5 17.5C18.3954 17.5 17.5 18.3954 17.5 19.5M21.5 19.5C21.5 20.6046 20.6046 21.5 19.5 21.5C18.3954 21.5 17.5 20.6046 17.5 19.5M17.5 19.5H9" stroke="black" stroke-width="1.5"/>
</svg>
