<svg width="32" height="32" viewBox="0 0 32 32" fill="none" xmlns="http://www.w3.org/2000/svg">
    <mask id="path-1-inside-1_1930_5829" fill="white">
      <path
        fill-rule="evenodd"
        clip-rule="evenodd"
        d="M20.2426 13.1714L18.8284 11.7571L18.1213 12.4642L19.5355 13.8785L20.2426 13.1714ZM13.8787 19.5353L12.4645 18.1211L11.7574 18.8282L13.1716 20.2424L13.8787 19.5353ZM13.1716 11.7571L13.8787 12.4642L12.4645 13.8785L11.7574 13.1714L13.1716 11.7571ZM20.2426 18.8282L19.5355 18.1211L18.1213 19.5353L18.8284 20.2424L20.2426 18.8282ZM17.4142 10.3429L16 8.92871L14.5858 10.3429L15.2929 11.05L16 10.3429L16.7071 11.05L17.4142 10.3429ZM21.6569 14.5856L23.0711 15.9998L21.6569 17.414L20.9497 16.7069L21.6569 15.9998L20.9497 15.2927L21.6569 14.5856ZM11.0503 15.2927L10.3431 14.5856L8.92893 15.9998L10.3431 17.414L11.0503 16.7069L10.3431 15.9998L11.0503 15.2927ZM16.7071 20.9495L17.4142 21.6566L16 23.0708L14.5858 21.6566L15.2929 20.9495L16 21.6566L16.7071 20.9495Z" />
    </mask>
    <path
      fill-rule="evenodd"
      clip-rule="evenodd"
      d="M20.2426 13.1714L18.8284 11.7571L18.1213 12.4642L19.5355 13.8785L20.2426 13.1714ZM13.8787 19.5353L12.4645 18.1211L11.7574 18.8282L13.1716 20.2424L13.8787 19.5353ZM13.1716 11.7571L13.8787 12.4642L12.4645 13.8785L11.7574 13.1714L13.1716 11.7571ZM20.2426 18.8282L19.5355 18.1211L18.1213 19.5353L18.8284 20.2424L20.2426 18.8282ZM17.4142 10.3429L16 8.92871L14.5858 10.3429L15.2929 11.05L16 10.3429L16.7071 11.05L17.4142 10.3429ZM21.6569 14.5856L23.0711 15.9998L21.6569 17.414L20.9497 16.7069L21.6569 15.9998L20.9497 15.2927L21.6569 14.5856ZM11.0503 15.2927L10.3431 14.5856L8.92893 15.9998L10.3431 17.414L11.0503 16.7069L10.3431 15.9998L11.0503 15.2927ZM16.7071 20.9495L17.4142 21.6566L16 23.0708L14.5858 21.6566L15.2929 20.9495L16 21.6566L16.7071 20.9495Z"
      fill="currentColor" />
    <path
      d="M18.8284 11.7571L19.5355 11.05L18.8284 10.3429L18.1213 11.05L18.8284 11.7571ZM20.2426 13.1714L20.9497 13.8785L21.6569 13.1714L20.9497 12.4642L20.2426 13.1714ZM18.1213 12.4642L17.4142 11.7571L16.7071 12.4642L17.4142 13.1714L18.1213 12.4642ZM19.5355 13.8785L18.8284 14.5856L19.5355 15.2927L20.2426 14.5856L19.5355 13.8785ZM12.4645 18.1211L13.1716 17.414L12.4645 16.7069L11.7574 17.414L12.4645 18.1211ZM13.8787 19.5353L14.5858 20.2424L15.2929 19.5353L14.5858 18.8282L13.8787 19.5353ZM11.7574 18.8282L11.0503 18.1211L10.3431 18.8282L11.0503 19.5353L11.7574 18.8282ZM13.1716 20.2424L12.4645 20.9495L13.1716 21.6566L13.8787 20.9495L13.1716 20.2424ZM13.8787 12.4642L14.5858 13.1714L15.2929 12.4642L14.5858 11.7571L13.8787 12.4642ZM13.1716 11.7571L13.8787 11.05L13.1716 10.3429L12.4645 11.05L13.1716 11.7571ZM12.4645 13.8785L11.7574 14.5856L12.4645 15.2927L13.1716 14.5856L12.4645 13.8785ZM11.7574 13.1714L11.0503 12.4642L10.3431 13.1714L11.0503 13.8785L11.7574 13.1714ZM19.5355 18.1211L20.2426 17.414L19.5355 16.7069L18.8284 17.414L19.5355 18.1211ZM20.2426 18.8282L20.9497 19.5353L21.6569 18.8282L20.9497 18.1211L20.2426 18.8282ZM18.1213 19.5353L17.4142 18.8282L16.7071 19.5353L17.4142 20.2424L18.1213 19.5353ZM18.8284 20.2424L18.1213 20.9495L18.8284 21.6566L19.5355 20.9495L18.8284 20.2424ZM16 8.92871L16.7071 8.2216L16 7.5145L15.2929 8.2216L16 8.92871ZM17.4142 10.3429L18.1213 11.05L18.8284 10.3429L18.1213 9.63582L17.4142 10.3429ZM14.5858 10.3429L13.8787 9.63582L13.1716 10.3429L13.8787 11.05L14.5858 10.3429ZM15.2929 11.05L14.5858 11.7571L15.2929 12.4642L16 11.7571L15.2929 11.05ZM16 10.3429L16.7071 9.63582L16 8.92871L15.2929 9.63582L16 10.3429ZM16.7071 11.05L16 11.7571L16.7071 12.4642L17.4142 11.7571L16.7071 11.05ZM23.0711 15.9998L23.7782 16.7069L24.4853 15.9998L23.7782 15.2927L23.0711 15.9998ZM21.6569 14.5856L22.364 13.8785L21.6569 13.1714L20.9497 13.8785L21.6569 14.5856ZM21.6569 17.414L20.9497 18.1211L21.6569 18.8282L22.364 18.1211L21.6569 17.414ZM20.9497 16.7069L20.2426 15.9998L19.5355 16.7069L20.2426 17.414L20.9497 16.7069ZM21.6569 15.9998L22.364 16.7069L23.0711 15.9998L22.364 15.2927L21.6569 15.9998ZM20.9497 15.2927L20.2426 14.5856L19.5355 15.2927L20.2426 15.9998L20.9497 15.2927ZM10.3431 14.5856L11.0503 13.8785L10.3431 13.1714L9.63604 13.8785L10.3431 14.5856ZM11.0503 15.2927L11.7574 15.9998L12.4645 15.2927L11.7574 14.5856L11.0503 15.2927ZM8.92893 15.9998L8.22183 15.2927L7.51472 15.9998L8.22183 16.7069L8.92893 15.9998ZM10.3431 17.414L9.63604 18.1211L10.3431 18.8282L11.0503 18.1211L10.3431 17.414ZM11.0503 16.7069L11.7574 17.414L12.4645 16.7069L11.7574 15.9998L11.0503 16.7069ZM10.3431 15.9998L9.63604 15.2927L8.92893 15.9998L9.63604 16.7069L10.3431 15.9998ZM17.4142 21.6566L18.1213 22.3637L18.8284 21.6566L18.1213 20.9495L17.4142 21.6566ZM16.7071 20.9495L17.4142 20.2424L16.7071 19.5353L16 20.2424L16.7071 20.9495ZM16 23.0708L15.2929 23.778L16 24.4851L16.7071 23.778L16 23.0708ZM14.5858 21.6566L13.8787 20.9495L13.1716 21.6566L13.8787 22.3637L14.5858 21.6566ZM15.2929 20.9495L16 20.2424L15.2929 19.5353L14.5858 20.2424L15.2929 20.9495ZM16 21.6566L15.2929 22.3637L16 23.0708L16.7071 22.3637L16 21.6566ZM18.1213 12.4642L19.5355 13.8785L20.9497 12.4642L19.5355 11.05L18.1213 12.4642ZM18.8284 13.1714L19.5355 12.4642L18.1213 11.05L17.4142 11.7571L18.8284 13.1714ZM20.2426 13.1714L18.8284 11.7571L17.4142 13.1714L18.8284 14.5856L20.2426 13.1714ZM19.5355 12.4642L18.8284 13.1714L20.2426 14.5856L20.9497 13.8785L19.5355 12.4642ZM11.7574 18.8282L13.1716 20.2424L14.5858 18.8282L13.1716 17.414L11.7574 18.8282ZM12.4645 19.5353L13.1716 18.8282L11.7574 17.414L11.0503 18.1211L12.4645 19.5353ZM13.8787 19.5353L12.4645 18.1211L11.0503 19.5353L12.4645 20.9495L13.8787 19.5353ZM13.1716 18.8282L12.4645 19.5353L13.8787 20.9495L14.5858 20.2424L13.1716 18.8282ZM14.5858 11.7571L13.8787 11.05L12.4645 12.4642L13.1716 13.1714L14.5858 11.7571ZM13.1716 14.5856L14.5858 13.1714L13.1716 11.7571L11.7574 13.1714L13.1716 14.5856ZM11.0503 13.8785L11.7574 14.5856L13.1716 13.1714L12.4645 12.4642L11.0503 13.8785ZM12.4645 11.05L11.0503 12.4642L12.4645 13.8785L13.8787 12.4642L12.4645 11.05ZM18.8284 18.8282L19.5355 19.5353L20.9497 18.1211L20.2426 17.414L18.8284 18.8282ZM18.8284 20.2424L20.2426 18.8282L18.8284 17.414L17.4142 18.8282L18.8284 20.2424ZM19.5355 19.5353L18.8284 18.8282L17.4142 20.2424L18.1213 20.9495L19.5355 19.5353ZM19.5355 18.1211L18.1213 19.5353L19.5355 20.9495L20.9497 19.5353L19.5355 18.1211ZM15.2929 9.63582L16.7071 11.05L18.1213 9.63582L16.7071 8.2216L15.2929 9.63582ZM15.2929 11.05L16.7071 9.63582L15.2929 8.2216L13.8787 9.63582L15.2929 11.05ZM16 10.3429L15.2929 9.63582L13.8787 11.05L14.5858 11.7571L16 10.3429ZM15.2929 9.63582L14.5858 10.3429L16 11.7571L16.7071 11.05L15.2929 9.63582ZM17.4142 10.3429L16.7071 9.63582L15.2929 11.05L16 11.7571L17.4142 10.3429ZM16.7071 9.63582L16 10.3429L17.4142 11.7571L18.1213 11.05L16.7071 9.63582ZM23.7782 15.2927L22.364 13.8785L20.9497 15.2927L22.364 16.7069L23.7782 15.2927ZM22.364 18.1211L23.7782 16.7069L22.364 15.2927L20.9497 16.7069L22.364 18.1211ZM20.2426 17.414L20.9497 18.1211L22.364 16.7069L21.6569 15.9998L20.2426 17.414ZM20.9497 15.2927L20.2426 15.9998L21.6569 17.414L22.364 16.7069L20.9497 15.2927ZM20.2426 15.9998L20.9497 16.7069L22.364 15.2927L21.6569 14.5856L20.2426 15.9998ZM20.9497 13.8785L20.2426 14.5856L21.6569 15.9998L22.364 15.2927L20.9497 13.8785ZM9.63604 15.2927L10.3431 15.9998L11.7574 14.5856L11.0503 13.8785L9.63604 15.2927ZM9.63604 16.7069L11.0503 15.2927L9.63604 13.8785L8.22183 15.2927L9.63604 16.7069ZM11.0503 16.7069L9.63604 15.2927L8.22183 16.7069L9.63604 18.1211L11.0503 16.7069ZM10.3431 15.9998L9.63604 16.7069L11.0503 18.1211L11.7574 17.414L10.3431 15.9998ZM9.63604 16.7069L10.3431 17.414L11.7574 15.9998L11.0503 15.2927L9.63604 16.7069ZM10.3431 14.5856L9.63604 15.2927L11.0503 16.7069L11.7574 15.9998L10.3431 14.5856ZM18.1213 20.9495L17.4142 20.2424L16 21.6566L16.7071 22.3637L18.1213 20.9495ZM16.7071 23.778L18.1213 22.3637L16.7071 20.9495L15.2929 22.3637L16.7071 23.778ZM13.8787 22.3637L15.2929 23.778L16.7071 22.3637L15.2929 20.9495L13.8787 22.3637ZM14.5858 20.2424L13.8787 20.9495L15.2929 22.3637L16 21.6566L14.5858 20.2424ZM16.7071 20.9495L16 20.2424L14.5858 21.6566L15.2929 22.3637L16.7071 20.9495ZM16 20.2424L15.2929 20.9495L16.7071 22.3637L17.4142 21.6566L16 20.2424Z"
      fill="currentColor"
      mask="url(#path-1-inside-1_1930_5829)" />
</svg>
