<svg xmlns="http://www.w3.org/2000/svg" width="32" height="32" fill="none">
  <path
    stroke="currentColor"
    d="M11.733 8v12.267m0 3.733v-3.733M20.267 8v3.733M8 11.733h12.267m3.733 0h-3.733M8 20.267h3.733" />
  <path
    fill="currentColor"
    fill-rule="evenodd"
    d="M14.183 14.183a.625.625 0 0 1 .614-.159l8.75 2.5a.625.625 0 0 1 .074 1.175l-4.145 1.777-1.776 4.145a.625.625 0 0 1-1.176-.074l-2.5-8.75a.625.625 0 0 1 .16-.614Zm1.352 1.352 1.708 5.978 1.183-2.76a.626.626 0 0 1 .328-.328l2.759-1.182-5.978-1.708Z"
    clip-rule="evenodd" />
</svg>
