<svg width="32" height="32" fill="none" xmlns="http://www.w3.org/2000/svg">
  <path
    fill="currentColor"
    d="M23.65 7H8.35A1.35 1.35 0 0 0 7 8.35v15.3A1.35 1.35 0 0 0 8.35 25h15.3A1.35 1.35 0 0 0 25 23.65V8.35A1.35 1.35 0 0 0 23.65 7ZM12.4 22.3H9.7v-8.1h2.7v8.1Zm-1.35-9.675a1.575 1.575 0 1 1 1.62-1.575 1.602 1.602 0 0 1-1.62 1.575ZM22.3 22.3h-2.7v-4.266c0-1.278-.54-1.737-1.242-1.737a1.565 1.565 0 0 0-1.458 1.674.59.59 0 0 0 0 .126V22.3h-2.7v-8.1h2.61v1.17a2.799 2.799 0 0 1 2.43-1.26c1.395 0 3.024.774 3.024 3.294L22.3 22.3Z" />
</svg>
