<svg width="32" height="32" fill="none" xmlns="http://www.w3.org/2000/svg">
  <path
    fill="currentColor"
    d="M23.169 13.117c0-.16 0-.32-.01-.478A7.515 7.515 0 0 0 25 10.73a7.347 7.347 0 0 1-2.12.58 3.707 3.707 0 0 0 1.623-2.043 7.407 7.407 0 0 1-2.344.898 3.697 3.697 0 0 0-6.295 3.367 10.483 10.483 0 0 1-7.611-3.859 3.696 3.696 0 0 0 1.144 4.93 3.656 3.656 0 0 1-1.677-.462v.047a3.695 3.695 0 0 0 2.964 3.62 3.68 3.68 0 0 1-1.668.064 3.698 3.698 0 0 0 3.45 2.564A7.42 7.42 0 0 1 7 21.967a10.446 10.446 0 0 0 5.661 1.656c6.793.002 10.508-5.625 10.508-10.505v-.001Z" />
</svg>
