<svg width="32" height="32" viewBox="0 0 32 32" fill="none" xmlns="http://www.w3.org/2000/svg">
    <path
      d="M15.7236 10.1811C12.8198 10.1811 10.0059 11.5786 7.91112 14.1178L7 13.3662C9.2909 10.5892 12.4251 9 15.7236 9C19.022 9 22.1563 10.5892 24.4472 13.3662L23.5361 14.1178C21.4413 11.5786 18.6274 10.1811 15.7236 10.1811Z"
      fill="currentColor" />
    <path
      d="M15.7238 15.1084C13.8537 15.1084 12.0311 16.0081 10.6673 17.6613L9.7562 16.9096C11.3162 15.0187 13.459 13.9273 15.7238 13.9273C17.9885 13.9273 20.1314 15.0187 21.6914 16.9096L20.7802 17.6613C19.4164 16.0081 17.5939 15.1084 15.7238 15.1084Z"
      fill="currentColor" />
    <path
      d="M13.9519 20.2383C13.9519 19.2598 14.7452 18.4666 15.7236 18.4666C16.7021 18.4666 17.4954 19.2598 17.4954 20.2383C17.4954 21.2168 16.7021 22.01 15.7236 22.01C14.7452 22.01 13.9519 21.2168 13.9519 20.2383Z"
      fill="currentColor" />
</svg>
