<svg width="16" height="32" viewBox="0 0 16 32" fill="none" xmlns="http://www.w3.org/2000/svg">
    <path d="M11 11L11.7071 11.7071L3.22183 20.1924L2.51472 19.4853L11 11Z" fill="currentColor" />
    <path
      fill-rule="evenodd"
      clip-rule="evenodd"
      d="M8.55826 12.0277C8.37652 12.0096 8.19043 12 8.00005 12C6.05721 12 4.56095 12.9953 3.57932 13.9344C3.08456 14.4077 2.70672 14.8795 2.45242 15.2326C2.32497 15.4096 2.22773 15.558 2.16161 15.6634C2.12853 15.7162 2.10318 15.7582 2.08568 15.7879L2.06531 15.8229L2.05956 15.833L2.05779 15.8361L2.05719 15.8372C1.98122 15.9735 1.9808 16.1364 2.05677 16.2727L2.05779 16.2745L2.05956 16.2777L2.06531 16.2878L2.08568 16.3228C2.10318 16.3524 2.12853 16.3945 2.16161 16.4472C2.22773 16.5527 2.32497 16.701 2.45242 16.878C2.59774 17.0798 2.7834 17.3204 3.00816 17.5778L3.70547 16.8805C3.54244 16.6878 3.40455 16.5077 3.29285 16.3526C3.20992 16.2374 3.14185 16.1366 3.08904 16.0553C3.14185 15.9741 3.20992 15.8733 3.29285 15.7581C3.52242 15.4393 3.86257 15.0151 4.30433 14.5925C5.12331 13.809 6.24571 13.0729 7.62746 12.9585L8.55826 12.0277ZM5.84819 16.152L7.95178 14.0484C7.96783 14.048 7.98392 14.0479 8.00005 14.0479C8.398 14.0479 8.77074 14.1484 9.09063 14.3237L6.22337 17.191C6.00347 16.8928 5.86775 16.5366 5.84819 16.152ZM4.39582 17.6043L3.70554 18.2946C3.93926 18.5095 4.1996 18.725 4.48577 18.9286L5.1794 18.235C4.89482 18.0388 4.63329 17.8243 4.39582 17.6043ZM6.08193 18.7466L5.36514 19.4634C6.11905 19.8472 7.00044 20.1107 8.00005 20.1107C9.94288 20.1107 11.4391 19.1153 12.4208 18.1762C12.9155 17.7029 13.2934 17.2312 13.5477 16.878C13.6751 16.701 13.7724 16.5527 13.8385 16.4472C13.8716 16.3945 13.8969 16.3524 13.9144 16.3228L13.9348 16.2878L13.9405 16.2777L13.9423 16.2745L13.9429 16.2735C14.0189 16.1372 14.0191 15.9739 13.9431 15.8376L13.9423 15.8361L13.9405 15.833L13.9348 15.8229L13.9144 15.7879C13.8969 15.7582 13.8716 15.7162 13.8385 15.6634C13.7724 15.558 13.6751 15.4096 13.5477 15.2326C13.2934 14.8795 12.9155 14.4077 12.4208 13.9344C12.1759 13.7002 11.899 13.4624 11.5911 13.2374L10.8984 13.9301C11.1895 14.1372 11.4557 14.3628 11.6958 14.5925C12.1375 15.0151 12.4777 15.4393 12.7072 15.7581C12.7902 15.8733 12.8582 15.9741 12.9111 16.0553C12.8582 16.1366 12.7902 16.2374 12.7072 16.3526C12.4777 16.6714 12.1375 17.0956 11.6958 17.5182C10.8044 18.371 9.55353 19.1676 8.00005 19.1676C7.29692 19.1676 6.65579 19.0044 6.08193 18.7466ZM9.83123 14.9973L6.99647 17.8321C7.29617 17.9794 7.63766 18.0628 8.00005 18.0628C9.18984 18.0628 10.1544 17.164 10.1544 16.0553C10.1544 15.6671 10.0361 15.3045 9.83123 14.9973ZM10.0087 13.4057C9.67982 13.2505 9.32824 13.1258 8.95493 13.0452L9.7281 12.2721C10.0811 12.3854 10.4126 12.529 10.722 12.6924L10.0087 13.4057ZM13.9429 16.2735C13.9429 16.2735 13.9433 16.2727 13.4943 16.0553L13.9429 16.2735ZM13.4943 16.0553C13.9433 15.8379 13.9431 15.8376 13.9431 15.8376L13.4943 16.0553ZM2.50584 16.0553L2.05719 15.8372C2.05719 15.8372 2.05677 15.8379 2.50584 16.0553Z"
      fill="currentColor" />
</svg>
