<svg width="16" height="32" viewBox="0 0 16 32" fill="none" xmlns="http://www.w3.org/2000/svg">
    <path
      fill-rule="evenodd"
      clip-rule="evenodd"
      d="M10.3846 13.8846V15.2308H11.1923C11.6384 15.2308 12 15.5924 12 16.0385V19.2692C12 19.7153 11.6384 20.0769 11.1923 20.0769H5.80769C5.36162 20.0769 5 19.7153 5 19.2692V16.0385C5 15.5924 5.36162 15.2308 5.80769 15.2308H6.61538V13.8846C6.61538 12.8438 7.45916 12 8.5 12C9.54084 12 10.3846 12.8438 10.3846 13.8846ZM7.15385 13.8846C7.15385 13.1412 7.75654 12.5385 8.5 12.5385C9.24346 12.5385 9.84615 13.1412 9.84615 13.8846V15.2308H7.15385V13.8846Z"
      fill="currentColor" />
</svg>
