<svg width="20" height="20" viewBox="0 0 20 20" fill="none" xmlns="http://www.w3.org/2000/svg">
    <path
      fill-rule="evenodd"
      clip-rule="evenodd"
      d="M11.3863 2.57452C11.2043 2.39238 10.9882 2.24789 10.7503 2.14932C10.5124 2.05074 10.2575 2 10 2C9.74252 2 9.48756 2.05074 9.24968 2.14932C9.01181 2.24789 8.79569 2.39238 8.61367 2.57452L2.57494 8.61302C2.39268 8.79508 2.24808 9.01128 2.14943 9.24927C2.05078 9.48726 2 9.74237 2 10C2 10.2576 2.05078 10.5127 2.14943 10.7507C2.24808 10.9887 2.39268 11.2049 2.57494 11.387L8.61367 17.4255C8.79569 17.6076 9.01181 17.7521 9.24968 17.8507C9.48756 17.9493 9.74252 18 10 18C10.2575 18 10.5124 17.9493 10.7503 17.8507C10.9882 17.7521 11.2043 17.6076 11.3863 17.4255L17.4251 11.387C17.6073 11.2049 17.7519 10.9887 17.8506 10.7507C17.9492 10.5127 18 10.2576 18 10C18 9.74237 17.9492 9.48726 17.8506 9.24927C17.7519 9.01128 17.6073 8.79508 17.4251 8.61302L11.3863 2.57452Z"
      fill="currentColor" />
    <path
      fill-rule="evenodd"
      clip-rule="evenodd"
      d="M10 12C9.73478 12 9.48043 11.8946 9.29289 11.7071C9.10536 11.5196 9 11.2652 9 11V6C9 5.73478 9.10536 5.48043 9.29289 5.29289C9.48043 5.10536 9.73478 5 10 5C10.2652 5 10.5196 5.10536 10.7071 5.29289C10.8946 5.48043 11 5.73478 11 6V11C11 11.2652 10.8946 11.5196 10.7071 11.7071C10.5196 11.8946 10.2652 12 10 12ZM10 15C9.73478 15 9.48043 14.8946 9.29289 14.7071C9.10536 14.5196 9 14.2652 9 14C9 13.7348 9.10536 13.4804 9.29289 13.2929C9.48043 13.1054 9.73478 13 10 13C10.2652 13 10.5196 13.1054 10.7071 13.2929C10.8946 13.4804 11 13.7348 11 14C11 14.2652 10.8946 14.5196 10.7071 14.7071C10.5196 14.8946 10.2652 15 10 15Z"
      fill="white" />
</svg>
