<svg width="128" height="36" viewBox="0 0 128 36" fill="none" xmlns="http://www.w3.org/2000/svg">
    <path
      d="M101.397 15.8825C101.425 15.4547 101.443 15.13 101.468 14.7538C101.99 14.7538 102.487 14.7538 103.147 14.7538C103.065 17.5302 103.095 20.2883 102.856 23.0223C102.702 24.7761 101.146 25.9322 99.147 26.1506C97.5965 26.3205 96.1873 25.9048 94.8303 24.9763C95.0852 24.6062 95.3216 24.2603 95.5641 23.9052C97.1268 24.7457 98.7018 25.3769 100.347 24.3513C101.394 23.6989 101.419 22.5732 101.407 21.2836C100.363 22.5064 99.1286 22.8736 97.7286 22.6369C96.7553 22.473 95.9448 21.9815 95.3431 21.1895C94.0966 19.5419 94.3422 16.8292 95.8558 15.5124C97.44 14.1378 99.6382 14.247 101.397 15.8825ZM95.9939 18.6347C95.997 20.3005 97.0777 21.4141 98.6772 21.4019C100.271 21.3898 101.364 20.2428 101.348 18.6013C101.333 16.9536 100.225 15.8158 98.6435 15.8279C97.0531 15.8401 95.9909 16.9658 95.9939 18.6347Z"
      fill="currentColor" />
    <path
      d="M44.8386 11C45.3452 11 45.7812 11 46.3215 11C47.9242 14.8809 49.533 18.783 51.1755 22.767C50.5369 22.767 49.9873 22.767 49.3487 22.767C48.9588 21.8112 48.5444 20.8008 48.1237 19.7722C46.4106 19.7722 44.7128 19.7722 42.9505 19.7722C42.5452 20.7705 42.1338 21.7779 41.7255 22.7883C41.1575 22.7883 40.6263 22.7883 40 22.7883C41.6211 18.8315 43.2176 14.9446 44.8386 11ZM45.6369 13.2333C45.5724 13.2302 45.5079 13.2272 45.4435 13.2272C44.7803 14.9112 44.1171 16.5983 43.4325 18.34C44.8908 18.34 46.1987 18.34 47.6448 18.34C46.954 16.5831 46.297 14.9082 45.6369 13.2333Z"
      fill="currentColor" />
    <path
      d="M68.4178 22.7982C67.816 22.7982 67.3555 22.7982 66.8428 22.7982C66.8428 18.887 66.8428 15.0001 66.8428 11.0615C67.3309 11.0615 67.8099 11.0615 68.3809 11.0615C68.3809 12.606 68.3809 14.1474 68.3809 15.8679C68.6388 15.6464 68.7616 15.5493 68.8722 15.44C69.87 14.466 71.0612 14.3325 72.3138 14.7664C73.4744 15.1669 73.8551 16.1743 73.8919 17.2667C73.9503 19.0751 73.9073 20.8866 73.9073 22.7588C73.3976 22.7588 72.9033 22.7588 72.3046 22.7588C72.3046 22.1428 72.3108 21.539 72.3046 20.9352C72.2893 19.7882 72.2801 18.6382 72.2402 17.4912C72.2156 16.7751 71.9331 16.1925 71.1902 15.9559C70.3981 15.701 69.4555 15.9407 69.0472 16.6143C68.7524 17.0998 68.5283 17.6854 68.4853 18.2437C68.3932 19.4635 68.4331 20.6894 68.4208 21.9152C68.4147 22.1914 68.4178 22.4675 68.4178 22.7982Z"
      fill="currentColor" />
    <path
      d="M88.7517 22.9864C86.2342 22.9621 84.4473 21.1749 84.4749 18.7141C84.5026 16.2836 86.357 14.5297 88.8745 14.551C91.3675 14.5722 93.1789 16.3867 93.1544 18.8354C93.1267 21.272 91.2816 23.0137 88.7517 22.9864ZM86.1328 18.7687C86.1482 20.4831 87.2688 21.6452 88.8807 21.6179C90.4342 21.5906 91.4965 20.4072 91.4873 18.711C91.4811 17.027 90.3973 15.8679 88.8193 15.8679C87.2135 15.8618 86.1175 17.0452 86.1328 18.7687Z"
      fill="currentColor" />
    <path
      d="M65.12 15.7462C64.9542 16.083 64.7761 16.441 64.595 16.8082C62.8266 15.6187 61.1687 15.6096 60.1432 16.7475C59.2038 17.7913 59.2099 19.7181 60.1525 20.7771C61.1595 21.9089 62.802 21.8937 64.6533 20.68C64.8314 21.041 65.0064 21.39 65.1753 21.7238C63.7538 23.3684 60.7082 23.429 59.0656 21.8876C57.3617 20.2885 57.3555 17.2876 59.0564 15.6825C60.6682 14.1562 63.7169 14.1623 65.12 15.7462Z"
      fill="currentColor" />
    <path
      d="M116.178 20.6977C116.346 21.0376 116.515 21.3683 116.675 21.6899C115.505 23.2647 112.481 23.4438 110.789 22.0631C108.972 20.5824 108.775 17.6361 110.378 15.8823C111.932 14.1831 114.996 14.0678 116.614 15.6911C116.552 15.855 116.491 16.0431 116.408 16.2221C116.322 16.4042 116.218 16.5802 116.086 16.8199C115.204 16.0704 114.191 15.7033 113.089 15.9642C112.549 16.0916 111.984 16.4376 111.606 16.8441C110.685 17.8303 110.75 19.7055 111.637 20.7402C112.625 21.9023 114.179 21.8993 116.178 20.6977Z"
      fill="currentColor" />
    <path
      d="M82.3377 11.0576C82.3377 14.9992 82.3377 18.871 82.3377 22.7822C81.8188 22.7822 81.3368 22.7822 80.8057 22.7822C80.8057 18.8861 80.8057 14.9931 80.8057 11.0576C81.303 11.0576 81.782 11.0576 82.3377 11.0576Z"
      fill="currentColor" />
    <path
      d="M57.0554 16.065C54.9616 15.9891 54.2953 16.5899 54.2339 18.5925C54.1909 19.9671 54.2247 21.3416 54.2247 22.7677C53.6659 22.7677 53.1686 22.7677 52.6221 22.7677C52.6221 20.1066 52.6221 17.4638 52.6221 14.7602C53.1379 14.7602 53.6352 14.7602 54.1787 14.7602C54.1971 15.0879 54.2124 15.4126 54.237 15.895C54.9554 14.7784 55.8519 14.3081 57.1475 14.6843C57.1199 15.1425 57.0892 15.5886 57.0554 16.065Z"
      fill="currentColor" />
    <path
      d="M78.1258 22.8011C77.5946 22.8011 77.1341 22.8011 76.6152 22.8011C76.6152 20.1188 76.6152 17.4577 76.6152 14.748C77.1034 14.748 77.5823 14.748 78.1258 14.748C78.1258 17.4122 78.1258 20.0733 78.1258 22.8011Z"
      fill="currentColor" />
    <path
      d="M105.76 22.78C105.76 20.0794 105.76 17.4365 105.76 14.7451C106.272 14.7451 106.751 14.7451 107.295 14.7451C107.295 17.4123 107.295 20.0764 107.295 22.78C106.797 22.78 106.319 22.78 105.76 22.78Z"
      fill="currentColor" />
    <path
      d="M77.3695 11.0245C77.9774 11.0275 78.4164 11.4402 78.4103 12.0076C78.4041 12.5568 77.9283 12.9968 77.348 12.9877C76.7708 12.9786 76.2888 12.5204 76.295 11.9864C76.3042 11.4371 76.7708 11.0184 77.3695 11.0245Z"
      fill="currentColor" />
    <path
      d="M107.577 11.9924C107.58 12.5416 107.111 12.9876 106.53 12.9876C105.956 12.9876 105.465 12.5325 105.462 12.0015C105.459 11.4553 105.922 11.0275 106.524 11.0244C107.135 11.0214 107.574 11.425 107.577 11.9924Z"
      fill="currentColor" />
    <path
      fill-rule="evenodd"
      clip-rule="evenodd"
      d="M20.2013 7H21.1346C21.4017 7 21.6412 7.10923 21.7978 7.33681V27.2146C21.7978 27.2146 21.7517 28.3676 20.5789 28.3676C19.5043 28.3676 19.4061 27.4148 19.3938 27.1539V27.0871V23.1152L14.6381 21.0337C14.6381 21.0337 13.4868 23.1729 13.2657 23.5855C13.0446 24.0012 12.4091 24.5322 11.5188 24.0437C10.6161 23.5552 11.1657 22.5023 11.1657 22.5023L19.1267 7.80409C19.3232 7.32467 19.7377 7 20.2013 7ZM15.5561 18.7549L19.3908 20.4268V11.7183L15.5561 18.7549ZM22.1919 7.81641L22.5327 8.44451H22.545V13.0142L22.1919 12.3739V7.81641ZM23.2221 9.7124L22.8721 9.0752V13.6327L23.2221 14.2699V9.7124ZM23.5671 10.3438L23.914 10.984V15.5445L23.5671 14.9043V10.3438ZM24.258 11.6152L24.5988 12.2433V16.813L24.258 16.1728V11.6152ZM24.9482 12.8838L25.289 13.5149V18.0846L24.9482 17.4444V12.8838ZM25.6416 18.7887V21.4467L25.9824 21.295V14.7834L25.6416 14.1553V18.7128V18.7887ZM26.6738 20.9912L26.4865 21.0792L26.333 21.1429V15.4111L26.6738 16.0514V20.9912ZM27.3652 22.3507V17.3229L27.0244 16.6826V21.6649L27.3652 22.3507ZM27.7178 23.0215V17.9512L28.0586 18.5823V23.6496L28.0033 23.595L27.7178 23.0215ZM28.4082 19.2217V23.9218C28.5065 23.9764 28.6293 24.0311 28.7613 24.0614V19.8528L28.4082 19.2217ZM29.0996 24.1191V20.4932L29.4527 21.1364V24.0767C29.3207 24.107 29.2101 24.1191 29.0996 24.1191ZM30.1303 22.3932V23.5098C30.0996 23.6827 29.9338 23.8466 29.7803 23.9225V21.7529L30.1303 22.3932ZM25.2893 18.9281L24.9485 19.0798V21.7531L25.2893 21.6013V18.9281ZM24.5986 19.2314L24.2578 19.3862V22.0655L24.5986 21.9046V19.2314ZM23.9133 19.5378L23.5664 19.6895V22.3688L23.9133 22.2171V19.5378ZM22.8724 19.9925L23.2224 19.8408V22.511L22.8724 22.6627V19.9925ZM22.5318 20.1358L22.1787 20.2875V22.9789L22.5318 22.8272V20.1358Z"
      fill="currentColor" />
</svg>
