<svg width="40" height="40" viewBox="0 0 40 40" fill="none" xmlns="http://www.w3.org/2000/svg">
    <path
      fill-rule="evenodd"
      clip-rule="evenodd"
      d="M19.2013 9H20.1346C20.4017 9 20.6412 9.10923 20.7978 9.33681V29.2146C20.7978 29.2146 20.7517 30.3676 19.5789 30.3676C18.5043 30.3676 18.4061 29.4148 18.3938 29.1539V29.0871V25.1152L13.6381 23.0337C13.6381 23.0337 12.4868 25.1729 12.2657 25.5855C12.0446 26.0012 11.4091 26.5322 10.5188 26.0437C9.61612 25.5552 10.1657 24.5023 10.1657 24.5023L18.1267 9.80409C18.3232 9.32467 18.7377 9 19.2013 9ZM14.5561 20.7549L18.3908 22.4268V13.7183L14.5561 20.7549ZM21.1919 9.81641L21.5327 10.4445H21.545V15.0142L21.1919 14.3739V9.81641ZM22.2221 11.7124L21.8721 11.0752V15.6327L22.2221 16.2699V11.7124ZM22.5671 12.3438L22.914 12.984V17.5445L22.5671 16.9043V12.3438ZM23.258 13.6152L23.5988 14.2433V18.813L23.258 18.1728V13.6152ZM23.9482 14.8838L24.289 15.5149V20.0846L23.9482 19.4444V14.8838ZM24.6416 20.7887V23.4467L24.9824 23.295V16.7834L24.6416 16.1553V20.7128V20.7887ZM25.6738 22.9912L25.4865 23.0792L25.333 23.1429V17.4111L25.6738 18.0514V22.9912ZM26.3652 24.3507V19.3229L26.0244 18.6826V23.6649L26.3652 24.3507ZM26.7178 25.0215V19.9512L27.0586 20.5823V25.6496L27.0033 25.595L26.7178 25.0215ZM27.4082 21.2217V25.9218C27.5065 25.9764 27.6293 26.0311 27.7613 26.0614V21.8528L27.4082 21.2217ZM28.0996 26.1191V22.4932L28.4527 23.1364V26.0767C28.3207 26.107 28.2101 26.1191 28.0996 26.1191ZM29.1303 24.3932V25.5098C29.0996 25.6827 28.9338 25.8466 28.7803 25.9225V23.7529L29.1303 24.3932ZM24.2893 20.9281L23.9485 21.0798V23.7531L24.2893 23.6013V20.9281ZM23.5986 21.2314L23.2578 21.3862V24.0655L23.5986 23.9046V21.2314ZM22.9133 21.5378L22.5664 21.6895V24.3688L22.9133 24.2171V21.5378ZM21.8724 21.9925L22.2224 21.8408V24.511L21.8724 24.6627V21.9925ZM21.5318 22.1358L21.1787 22.2875V24.9789L21.5318 24.8272V22.1358Z"
      fill="currentColor" />
</svg>
