<svg width="80" height="80" viewBox="0 0 80 80" fill="none" xmlns="http://www.w3.org/2000/svg">
    <path
      fill-rule="evenodd"
      clip-rule="evenodd"
      d="M38.4026 18H40.2692C40.8035 18 41.2824 18.2185 41.5956 18.6736V58.4291C41.5956 58.4291 41.5035 60.7352 39.1578 60.7352C37.0087 60.7352 36.8122 58.8296 36.7876 58.3077V58.1742V50.2304L27.2762 46.0673C27.2762 46.0673 24.9735 50.3457 24.5314 51.1711C24.0893 52.0025 22.8182 53.0645 21.0375 52.0874C19.2322 51.1104 20.3314 49.0046 20.3314 49.0046L36.2534 19.6082C36.6464 18.6493 37.4754 18 38.4026 18ZM29.1121 41.5098L36.7815 44.8536V27.4367L29.1121 41.5098ZM42.3842 19.6329L43.0658 20.8891H43.0903V30.0284L42.3842 28.748V19.6329ZM44.4441 23.4248L43.7441 22.1504V31.2655L44.4441 32.5399V23.4248ZM45.1336 24.6874L45.8274 25.9679V35.089L45.1336 33.8085V24.6874ZM46.516 27.2306L47.1975 28.4868V37.6261L46.516 36.3456V27.2306ZM47.8965 29.7676L48.5781 31.0298V40.1692L47.8965 38.8887V29.7676ZM49.2833 41.5773V46.8934L49.9648 46.59V33.5667L49.2833 32.3105V41.4256V41.5773ZM51.3477 45.9825L50.9731 46.1585L50.6661 46.2859V34.8223L51.3477 36.1028V45.9825ZM52.7303 48.7014V38.6457L52.0487 37.3652V47.3299L52.7303 48.7014ZM53.4354 50.0429V39.9022L54.117 41.1645V51.2991L54.0065 51.1899L53.4354 50.0429ZM54.8165 42.4434V51.8436C55.013 51.9529 55.2586 52.0621 55.5227 52.1228V43.7056L54.8165 42.4434ZM56.1991 52.2382V44.9863L56.9053 46.2728V52.1533C56.6412 52.214 56.4202 52.2382 56.1991 52.2382ZM58.2606 48.7863V51.0195C58.1992 51.3655 57.8677 51.6932 57.5606 51.8449V47.5058L58.2606 48.7863ZM48.5784 41.856L47.8968 42.1594V47.5059L48.5784 47.2024V41.856ZM47.1973 42.4629L46.5157 42.7724V48.1309L47.1973 47.8093V42.4629ZM45.8267 43.0758L45.1329 43.3792V48.7378L45.8267 48.4343V43.0758ZM43.7444 43.985L44.4444 43.6815V49.0219L43.7444 49.3253V43.985ZM43.0635 44.2716L42.3574 44.5751V49.9579L43.0635 49.6545V44.2716Z"
      fill="currentColor" />
</svg>
