<svg width="64" height="64" viewBox="0 0 64 64" fill="none" xmlns="http://www.w3.org/2000/svg">
    <path
      fill-rule="evenodd"
      clip-rule="evenodd"
      d="M30.7221 14.4004H32.2154C32.6428 14.4004 33.0259 14.5752 33.2765 14.9393V46.7437C33.2765 46.7437 33.2028 48.5885 31.3263 48.5885C29.607 48.5885 29.4498 47.0641 29.4301 46.6466V46.5398V40.1847L21.8209 36.8543C21.8209 36.8543 19.9788 40.277 19.6251 40.9372C19.2714 41.6024 18.2546 42.452 16.83 41.6703C15.3858 40.8887 16.2651 39.204 16.2651 39.204L29.0027 15.6869C29.3171 14.9199 29.9803 14.4004 30.7221 14.4004ZM23.2897 33.2082L29.4252 35.8833V21.9497L23.2897 33.2082ZM33.9074 15.7066L34.4526 16.7116H34.4723V24.0231L33.9074 22.9987V15.7066ZM35.5553 18.7402L34.9953 17.7207V25.0128L35.5553 26.0323V18.7402ZM36.1069 19.7504L36.662 20.7748V28.0717L36.1069 27.0473V19.7504ZM37.2127 21.7848L37.758 22.7897V30.1012L37.2127 29.0768V21.7848ZM38.3172 23.8145L38.8625 24.8243V32.1357L38.3172 31.1114V23.8145ZM39.4266 33.2623V37.5151L39.9718 37.2724V26.8538L39.4266 25.8488V33.1409V33.2623ZM41.0781 36.7864L40.7784 36.9271L40.5328 37.0291V27.8582L41.0781 28.8826V36.7864ZM42.1843 38.9615V30.917L41.6391 29.8926V37.8643L42.1843 38.9615ZM42.7484 40.0348V31.9223L43.2937 32.9321V41.0397L43.2053 40.9524L42.7484 40.0348ZM43.8531 33.9551V41.4753C44.0103 41.5627 44.2068 41.6501 44.418 41.6986V34.9649L43.8531 33.9551ZM44.9594 41.791V35.9895L45.5243 37.0187V41.723C45.3131 41.7716 45.1362 41.791 44.9594 41.791ZM46.6084 39.0295V40.8161C46.5593 41.0928 46.2941 41.355 46.0484 41.4763V38.0051L46.6084 39.0295ZM38.8627 33.4851L38.3174 33.7279V38.0051L38.8627 37.7623V33.4851ZM37.7578 33.9707L37.2125 34.2183V38.5051L37.7578 38.2478V33.9707ZM36.6613 34.4611L36.1063 34.7038V38.9906L36.6613 38.7479V34.4611ZM34.9956 35.1884L35.5556 34.9457V39.218L34.9956 39.4607V35.1884ZM34.4508 35.4176L33.8859 35.6604V39.9667L34.4508 39.7239V35.4176Z"
      fill="currentColor" />
</svg>
