<svg width="40" height="40" viewBox="0 0 40 40" fill="none" xmlns="http://www.w3.org/2000/svg">
<path fill-rule="evenodd" clip-rule="evenodd" d="M16.5268 13.4398C16.5311 13.3826 16.5333 13.3249 16.5333 13.2667C16.5333 12.839 16.4149 12.439 16.209 12.0977H24.7911C24.5852 12.439 24.4668 12.839 24.4668 13.2667C24.4668 13.3249 24.469 13.3826 24.4733 13.4398H23.757L14.4749 22.7219V23.4762C14.4063 23.47 14.3369 23.4668 14.2667 23.4668C13.8536 23.4668 13.4663 23.5773 13.1328 23.7703V15.2298C13.4663 15.4228 13.8536 15.5333 14.2667 15.5333C14.3369 15.5333 14.4063 15.5301 14.4749 15.5239V18.0571L19.0922 13.4398H16.5268ZM22.4917 13.4398H20.3576L14.4749 19.3224V21.4565L22.4917 13.4398Z" fill="currentColor"/>
<path fill-rule="evenodd" clip-rule="evenodd" d="M16.2504 26.831H24.7498C24.5695 26.5058 24.4668 26.1316 24.4668 25.7335C24.4668 25.6508 24.4712 25.5692 24.4798 25.4889H21.9082L26.524 20.873V23.4763C26.593 23.47 26.6629 23.4668 26.7335 23.4668C27.1461 23.4668 27.5329 23.577 27.8661 23.7697V15.2305C27.5329 15.4231 27.1461 15.5333 26.7335 15.5333C26.6629 15.5333 26.593 15.5301 26.524 15.5238V16.2078L17.2429 25.4889H16.5203C16.5289 25.5692 16.5333 25.6508 16.5333 25.7335C16.5333 26.1316 16.4307 26.5058 16.2504 26.831ZM20.6428 25.4889H18.5083L26.524 17.4731V19.6077L20.6428 25.4889Z" fill="currentColor"/>
<path d="M16.1399 24.4569L25.4569 15.1399C25.2084 14.9703 24.9955 14.7525 24.8314 14.5L15.5 23.8314C15.7525 23.9955 15.9703 24.2084 16.1399 24.4569Z" fill="currentColor"/>
<path fill-rule="evenodd" clip-rule="evenodd" d="M14.2667 14.6386C15.0244 14.6386 15.6386 14.0244 15.6386 13.2667C15.6386 12.509 15.0244 11.8947 14.2667 11.8947C13.509 11.8947 12.8947 12.509 12.8947 13.2667C12.8947 14.0244 13.509 14.6386 14.2667 14.6386ZM14.2667 15.5333C15.5185 15.5333 16.5333 14.5185 16.5333 13.2667C16.5333 12.0148 15.5185 11 14.2667 11C13.0148 11 12 12.0148 12 13.2667C12 14.5185 13.0148 15.5333 14.2667 15.5333Z" fill="currentColor"/>
<path fill-rule="evenodd" clip-rule="evenodd" d="M14.2667 27.1054C15.0244 27.1054 15.6386 26.4912 15.6386 25.7335C15.6386 24.9758 15.0244 24.3615 14.2667 24.3615C13.509 24.3615 12.8947 24.9758 12.8947 25.7335C12.8947 26.4912 13.509 27.1054 14.2667 27.1054ZM14.2667 28.0001C15.5185 28.0001 16.5333 26.9853 16.5333 25.7335C16.5333 24.4816 15.5185 23.4668 14.2667 23.4668C13.0148 23.4668 12 24.4816 12 25.7335C12 26.9853 13.0148 28.0001 14.2667 28.0001Z" fill="currentColor"/>
<path fill-rule="evenodd" clip-rule="evenodd" d="M26.7335 27.1054C27.4912 27.1054 28.1054 26.4912 28.1054 25.7335C28.1054 24.9758 27.4912 24.3615 26.7335 24.3615C25.9758 24.3615 25.3615 24.9758 25.3615 25.7335C25.3615 26.4912 25.9758 27.1054 26.7335 27.1054ZM26.7335 28.0001C27.9853 28.0001 29.0001 26.9853 29.0001 25.7335C29.0001 24.4816 27.9853 23.4668 26.7335 23.4668C25.4816 23.4668 24.4668 24.4816 24.4668 25.7335C24.4668 26.9853 25.4816 28.0001 26.7335 28.0001Z" fill="currentColor"/>
<path fill-rule="evenodd" clip-rule="evenodd" d="M26.7335 14.6386C27.4912 14.6386 28.1054 14.0244 28.1054 13.2667C28.1054 12.509 27.4912 11.8947 26.7335 11.8947C25.9758 11.8947 25.3615 12.509 25.3615 13.2667C25.3615 14.0244 25.9758 14.6386 26.7335 14.6386ZM26.7335 15.5333C27.9853 15.5333 29.0001 14.5185 29.0001 13.2667C29.0001 12.0148 27.9853 11 26.7335 11C25.4816 11 24.4668 12.0148 24.4668 13.2667C24.4668 14.5185 25.4816 15.5333 26.7335 15.5333Z" fill="currentColor"/>
</svg>
