<svg width="40" height="40" viewBox="0 0 40 40" fill="none" xmlns="http://www.w3.org/2000/svg">
<path fill-rule="evenodd" clip-rule="evenodd" d="M28.1054 13.2667C28.1054 14.0244 27.4912 14.6386 26.7335 14.6386C25.9758 14.6386 25.3615 14.0244 25.3615 13.2667C25.3615 12.509 25.9758 11.8947 26.7335 11.8947C27.4912 11.8947 28.1054 12.509 28.1054 13.2667ZM29.0001 13.2667C29.0001 14.5185 27.9853 15.5333 26.7335 15.5333C26.3718 15.5333 26.0299 15.4486 25.7265 15.298L16.298 24.7265C16.4486 25.0299 16.5333 25.3718 16.5333 25.7335C16.5333 26.9853 15.5185 28.0001 14.2667 28.0001C13.0148 28.0001 12 26.9853 12 25.7335C12 24.4816 13.0148 23.4668 14.2667 23.4668C14.6187 23.4668 14.9521 23.5471 15.2494 23.6903C15.2411 23.6864 15.2329 23.6824 15.2246 23.6786L24.6786 14.2246C24.5427 13.9336 24.4668 13.609 24.4668 13.2667C24.4668 12.0148 25.4816 11 26.7335 11C27.9853 11 29.0001 12.0148 29.0001 13.2667ZM12.8947 25.7335C12.8947 24.9758 13.509 24.3615 14.2667 24.3615C15.0244 24.3615 15.6386 24.9758 15.6386 25.7335C15.6386 26.4912 15.0244 27.1054 14.2667 27.1054C13.509 27.1054 12.8947 26.4912 12.8947 25.7335Z" fill="currentColor"/>
</svg>
