<svg width="40" height="40" viewBox="0 0 40 40" fill="none" xmlns="http://www.w3.org/2000/svg">
<path fill-rule="evenodd" clip-rule="evenodd" d="M11.1035 19.6983C11.1035 14.6182 15.2217 10.5 20.3018 10.5C25.3819 10.5 29.5001 14.6182 29.5001 19.6983C29.5001 24.7783 25.3819 28.8966 20.3018 28.8966C20.0813 28.8966 19.8624 28.8888 19.6455 28.8735L19.7247 27.3758L20.3147 27.3965C24.5604 27.3896 28.0001 23.9456 28.0001 19.6983C28.0001 15.4466 24.5534 12 20.3018 12C16.0502 12 12.6035 15.4466 12.6035 19.6983C12.6035 21.7553 13.4094 23.6227 14.7242 25.0043V22.7155H16.2242V27.6897H11.2501V26.1897H13.7798L13.7215 26.1254C12.1025 24.468 11.1035 22.1991 11.1035 19.6983ZM19.5518 19.6983V14.2672H21.0518V19.3876L24.4528 22.7886L23.3922 23.8493L19.7715 20.2286C19.6308 20.088 19.5518 19.8972 19.5518 19.6983Z" fill="currentColor"/>
</svg>
