<svg width="40" height="40" viewBox="0 0 40 40" fill="none" xmlns="http://www.w3.org/2000/svg">
  <path
    fill-rule="evenodd"
    clip-rule="evenodd"
    d="M20 10.75C14.8914 10.75 10.75 14.8914 10.75 20C10.75 25.1086 14.8914 29.25 20 29.25C25.1086 29.25 29.25 25.1086 29.25 20C29.25 14.8914 25.1086 10.75 20 10.75ZM9.25 20C9.25 14.0629 14.0629 9.25 20 9.25C25.9371 9.25 30.75 14.0629 30.75 20C30.75 25.9371 25.9371 30.75 20 30.75C14.0629 30.75 9.25 25.9371 9.25 20ZM20.75 14.95V16.4643H19.25V14.95H20.75ZM20.75 25H19.25V19.2857H20.75V25Z"
    fill="currentColor" />
</svg>
