<svg width="40" height="40" viewBox="0 0 40 40" fill="none" xmlns="http://www.w3.org/2000/svg">
<path d="M21.1211 13C21.1211 12.4477 21.5688 12 22.1211 12H26.1211C26.6734 12 27.1211 12.4477 27.1211 13V17C27.1211 17.5523 26.6734 18 26.1211 18H22.1211C21.5688 18 21.1211 17.5523 21.1211 17V13Z" fill="currentColor"/>
<rect x="15.1211" y="9.87891" width="7.41357" height="7.41357" rx="3.70679" transform="rotate(45 15.1211 9.87891)" fill="currentColor"/>
<path fill-rule="evenodd" clip-rule="evenodd" d="M25.1667 25.1667V21H26.8333V25.1667H31V26.8333H26.8333V31H25.1667V26.8333H21V25.1667H25.1667Z" fill="currentColor"/>
<path d="M12.1211 22C12.1211 21.4477 12.5688 21 13.1211 21H17.1211C17.6734 21 18.1211 21.4477 18.1211 22V26C18.1211 26.5523 17.6734 27 17.1211 27H13.1211C12.5688 27 12.1211 26.5523 12.1211 26V22Z" fill="currentColor"/>
</svg>
