<svg width="40" height="40" viewBox="0 0 40 40" fill="none" xmlns="http://www.w3.org/2000/svg">
<path d="M21.4128 11.3018C21.277 11.2327 21.1234 11.2327 20.9876 11.3018L13.4325 15.1468C13.2341 15.2478 13.1055 15.4795 13.1055 15.7358C13.1055 15.9922 13.2341 16.2239 13.4325 16.3249L20.9876 20.1699C21.1234 20.2389 21.277 20.2389 21.4128 20.1699L28.9679 16.3249C29.1663 16.2239 29.2949 15.9922 29.2949 15.7358C29.2949 15.4795 29.1663 15.2478 28.9679 15.1468L21.4128 11.3018Z" fill="currentColor"/>
<path d="M21.2002 22.7286L13.8577 18.9918L13.4325 20.1699L21.2002 24.123L28.9679 20.1699L28.5427 18.9918L21.2002 22.7286Z" fill="currentColor"/>
<path d="M13.8577 22.8368L13.4325 24.0149L21.2002 27.968L28.9679 24.0149L28.5427 22.8368L21.2002 26.5736L13.8577 22.8368Z" fill="currentColor"/>
</svg>
