<svg width="40" height="40" viewBox="0 0 40 40" fill="none" xmlns="http://www.w3.org/2000/svg">
    <path
      fill-rule="evenodd"
      clip-rule="evenodd"
      d="M14 20C14 19.4477 14.4477 19 15 19C15.5523 19 16 19.4477 16 20C16 20.5523 15.5523 21 15 21C14.4477 21 14 20.5523 14 20ZM19 20C19 19.4477 19.4477 19 20 19C20.5523 19 21 19.4477 21 20C21 20.5523 20.5523 21 20 21C19.4477 21 19 20.5523 19 20ZM24 20C24 19.4477 24.4477 19 25 19C25.5523 19 26 19.4477 26 20C26 20.5523 25.5523 21 25 21C24.4477 21 24 20.5523 24 20Z"
      fill="currentColor" />
</svg>
