<svg width="40" height="40" viewBox="0 0 40 40" fill="none" xmlns="http://www.w3.org/2000/svg">
<path d="M13.0394 26.6188C12.874 27.054 13.2572 27.4584 13.6693 27.2838L18.148 25.4387C18.0743 25.086 18.0272 24.7236 18.0088 24.3536L17.4486 24.5844C17.069 23.9519 16.5519 23.412 15.9483 23.0186L17.2461 19.0627L18.7597 19.5427L18.9935 20.4033C20.208 18.3793 22.4167 17.0199 24.9443 17.0002L21.2895 13.1422C21.0961 12.9381 20.7657 12.9558 20.5517 13.1818L16.4681 17.4923C16.4094 17.5542 16.3635 17.628 16.3339 17.7081L13.0394 26.6188Z" fill="currentColor"/>
<path fill-rule="evenodd" clip-rule="evenodd" d="M26.9231 22V20.3333C26.9231 19.0447 25.8382 18 24.5 18C23.1618 18 22.0769 19.0447 22.0769 20.3333V22H21.0385C20.4649 22 20 22.4477 20 23V27C20 27.5523 20.4649 28 21.0385 28H27.9615C28.5351 28 29 27.5523 29 27V23C29 22.4477 28.5351 22 27.9615 22H26.9231ZM24.5 18.6667C23.5441 18.6667 22.7692 19.4129 22.7692 20.3333V22H26.2308V20.3333C26.2308 19.4129 25.4559 18.6667 24.5 18.6667Z" fill="currentColor"/>
</svg>
