<svg width="40" height="40" viewBox="0 0 40 40" fill="none" xmlns="http://www.w3.org/2000/svg">
<path d="M13.0394 26.6188C12.874 27.054 13.2572 27.4584 13.6693 27.2838L22.1108 23.8061C22.1867 23.7748 22.2566 23.7264 22.3153 23.6645L26.3989 19.354C26.5017 19.2455 26.5634 19.1025 26.5704 18.9564C26.5775 18.8104 26.5293 18.6733 26.4364 18.5752L21.2895 13.1422C21.0961 12.9381 20.7657 12.9558 20.5517 13.1818L16.4681 17.4923C16.4094 17.5542 16.3635 17.6281 16.3339 17.7081L13.0394 26.6188ZM18.9756 18.6654L19.3403 20.2743C19.3811 20.4542 19.5094 20.5896 19.6799 20.6327L21.2042 21.0178L21.6465 22.855L17.1907 24.6907C16.7812 23.9518 16.196 23.3341 15.496 22.9018L17.2345 18.1996L18.9756 18.6654Z" fill="currentColor"/>
<path d="M13.9934 26.0959C13.8694 26.4618 14.2151 26.8265 14.5616 26.6956L21.6634 24.0996C21.7272 24.0762 21.7852 24.0379 21.833 23.9874L25.9346 19.6578C26.0184 19.5694 26.0654 19.4495 26.0655 19.3245C26.0655 19.1995 26.0184 19.0795 25.9346 18.9911L21.2923 14.0907C21.1179 13.9066 20.835 13.9066 20.6606 14.0907L16.559 18.4203C16.5112 18.4707 16.4749 18.532 16.4527 18.5994L13.9934 26.0959ZM20.9974 20.7525L19.9298 20.4294L19.6237 19.3023L22.295 16.4826L23.6687 17.9327L20.9974 20.7525ZM18.7597 19.5427L19.1394 20.9405C19.1818 21.0968 19.2975 21.2189 19.4456 21.2637L20.7699 21.6645L21.2255 23.2618L17.4769 24.6321C17.0948 23.979 16.567 23.4219 15.9483 23.0186L17.2461 19.0627L18.7597 19.5427ZM21.9498 22.5307L21.6319 21.4162L24.3003 18.5994L24.9872 19.3245L21.9498 22.5307ZM21.6633 15.8158L18.9947 18.6327L17.9383 18.2977L20.9764 15.0908L21.6633 15.8158Z" fill="currentColor"/>
</svg>
