<svg width="40" height="40" viewBox="0 0 40 40" fill="none" xmlns="http://www.w3.org/2000/svg">
    <path
      fill-rule="evenodd"
      clip-rule="evenodd"
      d="M11.25 18.8571C11.25 14.6558 14.6558 11.25 18.8571 11.25C23.0585 11.25 26.4643 14.6558 26.4643 18.8571C26.4643 20.6877 25.8177 22.3672 24.7405 23.6798L28.5303 27.4697C28.8232 27.7626 28.8232 28.2374 28.5303 28.5303C28.2374 28.8232 27.7626 28.8232 27.4697 28.5303L23.6798 24.7405C22.3672 25.8177 20.6877 26.4643 18.8571 26.4643C14.6558 26.4643 11.25 23.0585 11.25 18.8571ZM18.8571 12.75C15.4843 12.75 12.75 15.4843 12.75 18.8571C12.75 22.23 15.4843 24.9643 18.8571 24.9643C22.23 24.9643 24.9643 22.23 24.9643 18.8571C24.9643 15.4843 22.23 12.75 18.8571 12.75Z"
      fill="currentColor" />
</svg>
