<svg width="16" height="16" viewBox="0 0 16 16" fill="none" xmlns="http://www.w3.org/2000/svg">
    <path
      fill-rule="evenodd"
      clip-rule="evenodd"
      d="M7.81627 1.03769C7.9336 0.987437 8.0664 0.987437 8.18373 1.03769L14.7171 3.83587C14.8887 3.90938 15 4.07812 15 4.26484V11.7333C15 11.92 14.8887 12.0887 14.7172 12.1623L8.18383 14.9623C8.06644 15.0126 7.93356 15.0126 7.81617 14.9623L1.28284 12.1623C1.11125 12.0887 1 11.92 1 11.7333V4.26484C1 4.07812 1.1113 3.90938 1.28294 3.83587L7.81627 1.03769ZM7.53333 7.3709L1.93333 4.97402V11.4256L7.53333 13.8256V7.3709ZM8.46667 13.8256L14.0667 11.4256V4.97274L8.46667 7.37431V13.8256ZM13.348 4.26484L8 1.97433L2.65199 4.26484L8 6.55535L13.348 4.26484Z"
      fill="currentColor" />
</svg>
