<svg width="16" height="16" viewBox="0 0 16 16" fill="none" xmlns="http://www.w3.org/2000/svg">
    <path
      d="M1 7.98469C1 4.27551 3.88492 1.24014 7.53333 1V4.75111C5.95026 4.97755 4.73333 6.339 4.73333 7.98469C4.73333 9.78882 6.19587 11.2514 8 11.2514C8.73376 11.2514 9.41102 11.0094 9.95636 10.601L12.6088 13.2535C11.3775 14.3314 9.76506 14.9847 8 14.9847C4.13401 14.9847 1 11.8507 1 7.98469Z"
      fill="currentColor" />
    <path
      d="M13.2688 12.5935C14.3467 11.3622 15 9.74973 15 7.98469C15 7.02007 14.8049 6.10103 14.452 5.26487L11.0382 6.7821C11.1856 7.15429 11.2667 7.56003 11.2667 7.98469C11.2667 8.71844 11.0247 9.39569 10.6163 9.94102L13.2688 12.5935Z"
      fill="currentColor" />
    <path
      d="M8.46667 4.75111V1C10.8388 1.15614 12.8882 2.49393 14.0317 4.43028L10.5705 5.96861C10.0633 5.32279 9.31789 4.87286 8.46667 4.75111Z"
      fill="currentColor" />
</svg>
