<svg width="16" height="16" viewBox="0 0 16 16" fill="none" xmlns="http://www.w3.org/2000/svg">
    <path
      fill-rule="evenodd"
      clip-rule="evenodd"
      d="M3.07624 8.3C3.12842 8.38615 3.19567 8.49304 3.27761 8.61516C3.50443 8.95319 3.84053 9.40301 4.27701 9.85113C5.15775 10.7554 6.39365 11.6 7.92857 11.6C9.46349 11.6 10.6994 10.7554 11.5801 9.85113C12.0166 9.40301 12.3527 8.95319 12.5795 8.61516C12.6615 8.49304 12.7287 8.38615 12.7809 8.3C12.7287 8.21385 12.6615 8.10696 12.5795 7.98484C12.3527 7.64681 12.0166 7.19699 11.5801 6.74887C10.6994 5.84464 9.46349 5 7.92857 5C6.39365 5 5.15775 5.84464 4.27701 6.74887C3.84053 7.19699 3.50443 7.64681 3.27761 7.98484C3.19567 8.10696 3.12842 8.21385 3.07624 8.3ZM13.3571 8.3C13.8008 8.0695 13.8008 8.06933 13.8007 8.06915L13.8004 8.06871L13.7998 8.06756L13.7981 8.06424L13.7924 8.05353L13.7723 8.01644C13.755 7.98499 13.7299 7.94036 13.6973 7.88443C13.6319 7.77265 13.5359 7.61534 13.4099 7.42766C13.1587 7.05319 12.7853 6.55301 12.2965 6.05113C11.3266 5.05536 9.8482 4 7.92857 4C6.00895 4 4.53056 5.05536 3.56066 6.05113C3.07181 6.55301 2.69849 7.05319 2.44723 7.42766C2.32129 7.61534 2.22521 7.77265 2.15988 7.88443C2.1272 7.94036 2.10215 7.98499 2.08486 8.01644L2.06474 8.05353L2.05905 8.06424L2.05731 8.06756L2.05671 8.06871L2.05648 8.06915C2.05639 8.06933 2.0563 8.0695 2.5 8.3L2.0563 8.0695C1.98123 8.214 1.98123 8.386 2.0563 8.53049L2.5 8.3C2.0563 8.53049 2.05639 8.53066 2.05648 8.53085L2.05671 8.53129L2.05731 8.53243L2.05905 8.53576L2.06474 8.54647L2.08486 8.58356C2.10215 8.61501 2.1272 8.65964 2.15988 8.71557C2.22521 8.82735 2.32129 8.98466 2.44723 9.17234C2.69849 9.54681 3.07181 10.047 3.56066 10.5489C4.53056 11.5446 6.00895 12.6 7.92857 12.6C9.8482 12.6 11.3266 11.5446 12.2965 10.5489C12.7853 10.047 13.1587 9.54681 13.4099 9.17234C13.5359 8.98466 13.6319 8.82735 13.6973 8.71557C13.7299 8.65964 13.755 8.61501 13.7723 8.58356L13.7924 8.54647L13.7981 8.53576L13.7998 8.53243L13.8004 8.53129L13.8007 8.53085C13.8008 8.53066 13.8008 8.53049 13.3571 8.3ZM13.3571 8.3L13.8008 8.53049C13.8759 8.386 13.8759 8.214 13.8008 8.0695L13.3571 8.3ZM7.92857 7.17143C7.30528 7.17143 6.8 7.67671 6.8 8.3C6.8 8.92329 7.30528 9.42857 7.92857 9.42857C8.55186 9.42857 9.05714 8.92329 9.05714 8.3C9.05714 7.67671 8.55186 7.17143 7.92857 7.17143ZM5.8 8.3C5.8 7.12442 6.75299 6.17143 7.92857 6.17143C9.10415 6.17143 10.0571 7.12442 10.0571 8.3C10.0571 9.47558 9.10415 10.4286 7.92857 10.4286C6.75299 10.4286 5.8 9.47558 5.8 8.3Z"
      fill="currentColor" />
</svg>
