<svg width="16" height="16" viewBox="0 0 16 16" fill="none" xmlns="http://www.w3.org/2000/svg">
    <path
      d="M11.931 6.75862L12.1546 7.20583C12.3179 7.12422 12.4237 6.96017 12.4307 6.77781C12.4377 6.59545 12.3448 6.42377 12.1883 6.32987L11.931 6.75862ZM4 2L4.25725 1.57125C4.10278 1.47857 3.9104 1.47615 3.75365 1.5649C3.5969 1.65365 3.5 1.81986 3.5 2H4ZM12.1883 6.32987L4.25725 1.57125L3.74275 2.42875L11.6738 7.18737L12.1883 6.32987ZM3.5 2V10.7241H4.5V2H3.5ZM4.22361 11.1714L12.1546 7.20583L11.7074 6.31141L3.77639 10.2769L4.22361 11.1714ZM4.5 13.5V10.7241H3.5V13.5H4.5Z"
      fill="currentColor" />
</svg>
