<svg width="16" height="16" viewBox="0 0 16 16" fill="none" xmlns="http://www.w3.org/2000/svg">
    <path
      fill-rule="evenodd"
      clip-rule="evenodd"
      d="M2.00001 3.73333C2.00001 4.42852 2.40927 5.02813 3.00001 5.30435V10.6952C2.40927 10.9714 2 11.571 2 12.2662C2 13.2235 2.77604 13.9995 3.73333 13.9995C4.42835 13.9995 5.02782 13.5905 5.30414 13H10.6956C10.9718 13.5907 11.5714 13.9999 12.2665 13.9999C13.2238 13.9999 13.9999 13.2238 13.9999 12.2665C13.9999 11.5714 13.5907 10.9718 13 10.6956V5.30429C13.5907 5.02804 13.9999 4.42847 13.9999 3.73333C13.9999 2.77604 13.2238 2 12.2665 2C11.5713 2 10.9717 2.40926 10.6955 3H5.30436C5.02813 2.40926 4.42853 2 3.73334 2C2.77605 2 2.00001 2.77604 2.00001 3.73333ZM10.5846 4.15385H5.41531C5.26094 4.77331 4.77331 5.26093 4.15385 5.4153V10.5842C4.77346 10.7387 5.26117 11.2265 5.41542 11.8462H10.5845C10.7389 11.2266 11.2266 10.7389 11.8462 10.5845V5.41534C11.2266 5.261 10.739 4.77335 10.5846 4.15385Z"
      fill="currentColor" />
</svg>
