<svg width="16" height="16" viewBox="0 0 16 16" fill="none" xmlns="http://www.w3.org/2000/svg">
    <path
      d="M14.72 8.15936C14.72 7.66299 14.6755 7.18572 14.5927 6.72754H8V9.43527H11.7673C11.605 10.3103 11.1118 11.0516 10.3705 11.548V13.3044H12.6327C13.9564 12.0857 14.72 10.2912 14.72 8.15936Z"
      fill="currentColor" />
    <path
      d="M7.9996 15.0001C9.8896 15.0001 11.4741 14.3733 12.6323 13.3042L10.3701 11.5478C9.74323 11.9678 8.94141 12.216 7.9996 12.216C6.17641 12.216 4.63323 10.9846 4.08278 9.33008H1.74414V11.1437C2.89596 13.4314 5.26323 15.0001 7.9996 15.0001Z"
      fill="currentColor" />
    <path
      d="M4.08318 9.33008C3.94318 8.91008 3.86364 8.46145 3.86364 8.00008C3.86364 7.53872 3.94318 7.09008 4.08318 6.67008V4.85645H1.74455C1.27045 5.80145 1 6.87054 1 8.00008C1 9.12963 1.27045 10.1987 1.74455 11.1437L4.08318 9.33008Z"
      fill="currentColor" />
    <path
      d="M7.9996 3.78409C9.02732 3.78409 9.95005 4.13727 10.6755 4.83091L12.6832 2.82318C11.471 1.69364 9.88641 1 7.9996 1C5.26323 1 2.89596 2.56864 1.74414 4.85636L4.08278 6.67C4.63323 5.01545 6.17641 3.78409 7.9996 3.78409Z"
      fill="currentColor" />
</svg>
