<svg width="16" height="16" viewBox="0 0 16 16" fill="none" xmlns="http://www.w3.org/2000/svg">
    <path
      d="M4 4.75C4 4.336 4.336 4 4.75 4H6.25C6.664 4 7 4.336 7 4.75V6.25C7 6.664 6.664 7 6.25 7H4.75C4.336 7 4 6.664 4 6.25V4.75Z"
      fill="currentColor" />
    <path
      d="M4 4.75C4 4.336 4.336 4 4.75 4H6.25C6.664 4 7 4.336 7 4.75V6.25C7 6.664 6.664 7 6.25 7H4.75C4.336 7 4 6.664 4 6.25V4.75Z"
      fill="currentColor" />
    <path
      d="M4 9.75C4 9.336 4.336 9 4.75 9H6.25C6.664 9 7 9.336 7 9.75V11.25C7 11.664 6.664 12 6.25 12H4.75C4.336 12 4 11.664 4 11.25V9.75Z"
      fill="currentColor" />
    <path
      d="M9 4.75C9 4.336 9.336 4 9.75 4H11.25C11.664 4 12 4.336 12 4.75V6.25C12 6.664 11.664 7 11.25 7H9.75C9.336 7 9 6.664 9 6.25V4.75Z"
      fill="currentColor" />
    <path
      d="M9 9.75C9 9.336 9.336 9 9.75 9H11.25C11.664 9 12 9.336 12 9.75V11.25C12 11.664 11.664 12 11.25 12H9.75C9.336 12 9 11.664 9 11.25V9.75Z"
      fill="currentColor" />
</svg>
