<svg width="16" height="16" viewBox="0 0 16 16" fill="none" xmlns="http://www.w3.org/2000/svg">
<path fill-rule="evenodd" clip-rule="evenodd" d="M14 9.14201C14 7.74309 12.9787 6.58273 11.641 6.36587C11.2375 4.73004 9.76046 3.51699 8.00002 3.51699C7.13102 3.51699 6.33107 3.81257 5.6952 4.30868L6.49943 5.11291C6.92473 4.81608 7.44204 4.64199 8.00002 4.64199C9.44974 4.64199 10.625 5.81725 10.625 7.26699V7.4545L11.1875 7.45449C12.1195 7.45449 12.875 8.20999 12.875 9.14201C12.875 9.77734 12.5239 10.3307 12.0051 10.6185L12.8194 11.4329C13.5341 10.9229 14 10.0869 14 9.14201ZM3.79889 5.59435L2.00003 3.7955L2.79554 3L12.8718 13.0763L12.0763 13.8718L10.159 11.9545H5.37501C3.51104 11.9545 2 10.4435 2 8.57951C2 7.28483 2.72899 6.16042 3.79889 5.59435ZM9.03401 10.8295H5.37501C4.13236 10.8295 3.125 9.82211 3.125 8.57951C3.125 7.58958 3.76429 6.74897 4.65253 6.448L9.03401 10.8295Z" fill="currentColor"/>
</svg>
