<svg width="16" height="16" viewBox="0 0 16 16" fill="none" xmlns="http://www.w3.org/2000/svg">
    <path
      fill-rule="evenodd"
      clip-rule="evenodd"
      d="M1.93333 2.4C1.93333 1.6268 2.56013 1 3.33333 1H10.9933L14.0667 4.07337V8H8H1.93333V2.4ZM1 9.06667H3.8V10H1V9.06667ZM7.53333 9.06667H4.73333V10H7.53333V9.06667ZM11.2667 9.06667H8.46667V10H11.2667V9.06667ZM15 9.06667H12.2V10H15V9.06667ZM14.0667 13.6V11.0005H1.93333V13.6C1.93333 14.3732 2.56013 15 3.33333 15H12.6667C13.4399 15 14.0667 14.3732 14.0667 13.6ZM2.86667 11.9338H13.1333V13.6C13.1333 13.8577 12.9244 14.0667 12.6667 14.0667H3.33333C3.0756 14.0667 2.86667 13.8577 2.86667 13.6V11.9338Z"
      fill="currentColor" />
</svg>
