<svg width="16" height="16" viewBox="0 0 16 16" fill="none" xmlns="http://www.w3.org/2000/svg">
    <path
      fill-rule="evenodd"
      clip-rule="evenodd"
      d="M8 1C4.13401 1 1 4.13401 1 8C1 11.866 4.13401 15 8 15C11.866 15 15 11.866 15 8C15 4.13401 11.866 1 8 1ZM2.11747 6.51074C1.99722 6.98723 1.93333 7.48616 1.93333 8C1.93333 10.8687 3.92441 13.2723 6.6 13.9043V13.3266L5.66667 12.3933V10.9933L4.73333 10.06V8.93333C4.73333 8.6756 4.94227 8.46667 5.2 8.46667H8.93333C9.70653 8.46667 10.3333 9.09347 10.3333 9.86667V10.3444C10.8102 10.4126 11.1874 10.7898 11.2556 11.2667H13.113C13.7167 10.3237 14.0667 9.20273 14.0667 8C14.0667 5.47633 12.5257 3.31256 10.3334 2.3983V3.33333C10.3334 4.10653 9.70657 4.73333 8.93337 4.73333H8.00004C7.7423 4.73333 7.53337 4.94227 7.53337 5.2C7.53337 5.9732 6.90657 6.6 6.13337 6.6H5.6667V7.25997L5.25665 7.67002C4.70992 8.21675 3.82349 8.21675 3.27675 7.67002L2.11747 6.51074Z"
      fill="currentColor" />
</svg>
