<svg width="16" height="16" viewBox="0 0 16 16" fill="none" xmlns="http://www.w3.org/2000/svg">
<path fill-rule="evenodd" clip-rule="evenodd" d="M8 3.16129C5.32765 3.16129 3.16129 5.32765 3.16129 8H2C2 4.68629 4.68629 2 8 2C9.56822 2 10.996 2.60208 12.0645 3.58643V2.19355H13.2258V5.48387L9.93548 5.48387V4.32258H11.145C10.2989 3.59811 9.20054 3.16129 8 3.16129ZM8 12.8387C10.6723 12.8387 12.8387 10.6723 12.8387 8H14C14 11.3137 11.3137 14 8 14C6.43178 14 5.00396 13.3979 3.93548 12.4136V13.8065H2.77419V10.5161H6.06452V11.6774H4.85499C5.70115 12.4019 6.79946 12.8387 8 12.8387Z" fill="currentColor"/>
</svg>
