<svg width="16" height="16" viewBox="0 0 16 16" fill="none" xmlns="http://www.w3.org/2000/svg">
    <path
      fill-rule="evenodd"
      clip-rule="evenodd"
      d="M2.5 7.28571C2.5 4.64264 4.64264 2.5 7.28571 2.5C9.92879 2.5 12.0714 4.64264 12.0714 7.28571C12.0714 8.42715 11.6718 9.47526 11.0049 10.2978L13.3536 12.6464C13.5488 12.8417 13.5488 13.1583 13.3536 13.3536C13.1583 13.5488 12.8417 13.5488 12.6464 13.3536L10.2978 11.0049C9.47526 11.6718 8.42715 12.0714 7.28571 12.0714C4.64264 12.0714 2.5 9.92879 2.5 7.28571ZM7.28571 3.5C5.19492 3.5 3.5 5.19492 3.5 7.28571C3.5 9.37651 5.19492 11.0714 7.28571 11.0714C9.37651 11.0714 11.0714 9.37651 11.0714 7.28571C11.0714 5.19492 9.37651 3.5 7.28571 3.5Z"
      fill="currentColor" />
</svg>
