<svg width="16" height="16" viewBox="0 0 16 16" fill="none" xmlns="http://www.w3.org/2000/svg">
  <path d="M11.6 5.6L10.4 4.4L9.8 5L11 6.2L11.6 5.6Z" fill="currentColor"/>
  <path d="M6.2 11L5 9.8L4.4 10.4L5.6 11.6L6.2 11Z" fill="currentColor"/>
  <path d="M5.6 4.4L6.2 5L5 6.2L4.4 5.6L5.6 4.4Z" fill="currentColor"/>
  <path d="M11.6 10.4L11 9.8L9.8 11L10.4 11.6L11.6 10.4Z" fill="currentColor"/>
  <path d="M9.2 3.2L8 2L6.8 3.2L7.4 3.8L8 3.2L8.6 3.8L9.2 3.2Z" fill="currentColor"/>
  <path d="M12.8 6.8L14 8L12.8 9.2L12.2 8.6L12.8 8L12.2 7.4L12.8 6.8Z" fill="currentColor"/>
  <path d="M3.8 7.4L3.2 6.8L2 8L3.2 9.2L3.8 8.6L3.2 8L3.8 7.4Z" fill="currentColor"/>
  <path d="M8.6 12.2L9.2 12.8L8 14L6.8 12.8L7.4 12.2L8 12.8L8.6 12.2Z" fill="currentColor"/>
</svg>
