<svg width="16" height="16" viewBox="0 0 16 16" fill="none" xmlns="http://www.w3.org/2000/svg">
    <mask id="path-1-inside-1_2132_6645" fill="white">
      <path d="M11.3942 5.39334L10.2629 4.26203L9.69724 4.82769L10.8286 5.959L11.3942 5.39334Z" />
      <path d="M6.3042 10.4851L5.17289 9.35378L4.60723 9.91944L5.73854 11.0507L6.3042 10.4851Z" />
      <path d="M5.73883 4.26203L6.30449 4.82769L5.17318 5.959L4.60752 5.39334L5.73883 4.26203Z" />
      <path d="M11.3945 9.91944L10.8288 9.35378L9.69753 10.4851L10.2632 11.0507L11.3945 9.91944Z" />
      <path
        fill-rule="evenodd"
        clip-rule="evenodd"
        d="M9.13218 3.13131L8.00086 2L6.86955 3.13131L8.00086 4.26262L9.13218 3.13131ZM8.56652 3.69667L8.00086 3.13102L7.43521 3.69667L8.00086 4.26262L8.56652 3.69667Z" />
      <path
        d="M12.5267 6.5258L13.658 7.65711L12.5267 8.78843L11.3954 7.65711L11.9611 8.2226L12.5268 7.65695L11.9612 7.09131L12.5267 6.5258Z" />
      <path
        d="M4.04057 7.09131L3.47506 6.5258L2.34375 7.65711L3.47506 8.78843L4.60637 7.65711L4.04059 8.2226L3.47494 7.65695L4.04057 7.09131Z" />
      <path
        d="M8.56652 11.6155L9.13218 12.1812L8.00086 13.3125L6.86955 12.1812L7.43521 11.6155L8.00086 12.1812L8.56652 11.6155Z" />
    </mask>
    <path
      d="M11.3942 5.39334L10.2629 4.26203L9.69724 4.82769L10.8286 5.959L11.3942 5.39334Z"
      fill="currentColor" />
    <path
      d="M6.3042 10.4851L5.17289 9.35378L4.60723 9.91944L5.73854 11.0507L6.3042 10.4851Z"
      fill="currentColor" />
    <path
      d="M5.73883 4.26203L6.30449 4.82769L5.17318 5.959L4.60752 5.39334L5.73883 4.26203Z"
      fill="currentColor" />
    <path
      d="M11.3945 9.91944L10.8288 9.35378L9.69753 10.4851L10.2632 11.0507L11.3945 9.91944Z"
      fill="currentColor" />
    <path
      fill-rule="evenodd"
      clip-rule="evenodd"
      d="M9.13218 3.13131L8.00086 2L6.86955 3.13131L8.00086 4.26262L9.13218 3.13131ZM8.56652 3.69667L8.00086 3.13102L7.43521 3.69667L8.00086 4.26262L8.56652 3.69667Z"
      fill="currentColor" />
    <path
      d="M12.5267 6.5258L13.658 7.65711L12.5267 8.78843L11.3954 7.65711L11.9611 8.2226L12.5268 7.65695L11.9612 7.09131L12.5267 6.5258Z"
      fill="currentColor" />
    <path
      d="M4.04057 7.09131L3.47506 6.5258L2.34375 7.65711L3.47506 8.78843L4.60637 7.65711L4.04059 8.2226L3.47494 7.65695L4.04057 7.09131Z"
      fill="currentColor" />
    <path
      d="M8.56652 11.6155L9.13218 12.1812L8.00086 13.3125L6.86955 12.1812L7.43521 11.6155L8.00086 12.1812L8.56652 11.6155Z"
      fill="currentColor" />
    <path
      d="M11.3942 5.39334L12.1013 6.10045L12.8084 5.39334L12.1013 4.68624L11.3942 5.39334ZM10.2629 4.26203L10.97 3.55493L10.2629 2.84782L9.55579 3.55493L10.2629 4.26203ZM9.69724 4.82769L8.99014 4.12058L8.28303 4.82769L8.99014 5.5348L9.69724 4.82769ZM10.8286 5.959L10.1214 6.66611L10.8286 7.37321L11.5357 6.66611L10.8286 5.959ZM6.3042 10.4851L7.01131 11.1922L7.71841 10.4851L7.01131 9.77798L6.3042 10.4851ZM5.17289 9.35378L5.88 8.64667L5.17289 7.93957L4.46578 8.64667L5.17289 9.35378ZM4.60723 9.91944L3.90013 9.21233L3.19302 9.91943L3.90013 10.6265L4.60723 9.91944ZM5.73854 11.0507L5.03144 11.7579L5.73854 12.465L6.44565 11.7579L5.73854 11.0507ZM5.73883 4.26203L6.44594 3.55493L5.73883 2.84782L5.03172 3.55493L5.73883 4.26203ZM6.30449 4.82769L7.01159 5.5348L7.7187 4.82769L7.01159 4.12058L6.30449 4.82769ZM5.17318 5.959L4.46607 6.66611L5.17318 7.37321L5.88028 6.66611L5.17318 5.959ZM4.60752 5.39334L3.90041 4.68624L3.19331 5.39334L3.90041 6.10045L4.60752 5.39334ZM11.3945 9.91944L12.1016 10.6265L12.8087 9.91943L12.1016 9.21233L11.3945 9.91944ZM10.8288 9.35378L11.5359 8.64667L10.8288 7.93957L10.1217 8.64667L10.8288 9.35378ZM9.69753 10.4851L8.99042 9.77798L8.28332 10.4851L8.99042 11.1922L9.69753 10.4851ZM10.2632 11.0507L9.55608 11.7579L10.2632 12.465L10.9703 11.7579L10.2632 11.0507ZM9.13218 3.13131L9.83928 3.83842L10.5464 3.13131L9.83928 2.4242L9.13218 3.13131ZM8.00086 2L8.70797 1.29289L8.00086 0.585786L7.29376 1.29289L8.00086 2ZM6.86955 3.13131L6.16245 2.4242L5.45534 3.13131L6.16245 3.83842L6.86955 3.13131ZM8.00086 4.26262L7.29376 4.96973L8.00086 5.67684L8.70797 4.96973L8.00086 4.26262ZM8.56652 3.69667L9.27381 4.4036L9.98055 3.69649L9.27363 2.98957L8.56652 3.69667ZM8.00086 3.13102L8.70797 2.42391L8.00086 1.7168L7.29376 2.42391L8.00086 3.13102ZM7.43521 3.69667L6.7281 2.98957L6.02118 3.69649L6.72792 4.4036L7.43521 3.69667ZM12.5267 6.5258L13.2338 5.8187L12.5267 5.11159L11.8196 5.8187L12.5267 6.5258ZM13.658 7.65711L14.3651 8.36422L15.0722 7.65711L14.3651 6.95001L13.658 7.65711ZM12.5267 8.78843L11.8196 9.49553L12.5267 10.2026L13.2338 9.49553L12.5267 8.78843ZM11.3954 7.65711L12.1023 6.94982L10.6882 8.36422L11.3954 7.65711ZM11.9611 8.2226L11.2542 8.92989L11.9613 9.63663L12.6682 8.92971L11.9611 8.2226ZM12.5268 7.65695L13.2339 8.36405L13.941 7.65695L13.2339 6.94984L12.5268 7.65695ZM11.9612 7.09131L11.2541 6.38421L10.5469 7.09131L11.2541 7.79842L11.9612 7.09131ZM4.04057 7.09131L4.74768 7.79842L5.45478 7.09131L4.74768 6.3842L4.04057 7.09131ZM3.47506 6.5258L4.18217 5.8187L3.47506 5.11159L2.76795 5.8187L3.47506 6.5258ZM2.34375 7.65711L1.63664 6.95001L0.929536 7.65711L1.63664 8.36422L2.34375 7.65711ZM3.47506 8.78843L2.76795 9.49553L3.47506 10.2026L4.18217 9.49553L3.47506 8.78843ZM4.60637 7.65711L5.31348 8.36422L3.89945 6.94982L4.60637 7.65711ZM4.04059 8.2226L3.33348 8.92971L4.04041 9.63663L4.74751 8.92989L4.04059 8.2226ZM3.47494 7.65695L2.76783 6.94984L2.06072 7.65695L2.76783 8.36405L3.47494 7.65695ZM8.56652 11.6155L9.27363 10.9084L8.56652 10.2013L7.85941 10.9084L8.56652 11.6155ZM9.13218 12.1812L9.83928 12.8883L10.5464 12.1812L9.83928 11.4741L9.13218 12.1812ZM8.00086 13.3125L7.29376 14.0196L8.00086 14.7267L8.70797 14.0196L8.00086 13.3125ZM6.86955 12.1812L6.16245 11.4741L5.45534 12.1812L6.16245 12.8883L6.86955 12.1812ZM7.43521 11.6155L8.14232 10.9084L7.43521 10.2013L6.7281 10.9084L7.43521 11.6155ZM8.00086 12.1812L7.29376 12.8883L8.00086 13.5954L8.70797 12.8883L8.00086 12.1812ZM12.1013 4.68624L10.97 3.55493L9.55579 4.96914L10.6871 6.10045L12.1013 4.68624ZM9.55579 3.55493L8.99014 4.12058L10.4043 5.5348L10.97 4.96914L9.55579 3.55493ZM8.99014 5.5348L10.1214 6.66611L11.5357 5.25189L10.4043 4.12058L8.99014 5.5348ZM11.5357 6.66611L12.1013 6.10045L10.6871 4.68624L10.1214 5.25189L11.5357 6.66611ZM7.01131 9.77798L5.88 8.64667L4.46578 10.0609L5.59709 11.1922L7.01131 9.77798ZM4.46578 8.64667L3.90013 9.21233L5.31434 10.6265L5.87999 10.0609L4.46578 8.64667ZM3.90013 10.6265L5.03144 11.7579L6.44565 10.3436L5.31434 9.21233L3.90013 10.6265ZM6.44565 11.7579L7.01131 11.1922L5.59709 9.77798L5.03144 10.3436L6.44565 11.7579ZM5.03172 4.96914L5.59738 5.5348L7.01159 4.12058L6.44594 3.55493L5.03172 4.96914ZM5.59738 4.12058L4.46607 5.25189L5.88028 6.66611L7.01159 5.5348L5.59738 4.12058ZM5.88028 5.25189L5.31463 4.68624L3.90041 6.10045L4.46607 6.66611L5.88028 5.25189ZM5.31463 6.10045L6.44594 4.96914L5.03172 3.55493L3.90041 4.68624L5.31463 6.10045ZM12.1016 9.21233L11.5359 8.64667L10.1217 10.0609L10.6874 10.6265L12.1016 9.21233ZM10.1217 8.64667L8.99042 9.77798L10.4046 11.1922L11.5359 10.0609L10.1217 8.64667ZM8.99042 11.1922L9.55608 11.7579L10.9703 10.3436L10.4046 9.77798L8.99042 11.1922ZM10.9703 11.7579L12.1016 10.6265L10.6874 9.21233L9.55608 10.3436L10.9703 11.7579ZM9.83928 2.4242L8.70797 1.29289L7.29376 2.70711L8.42507 3.83842L9.83928 2.4242ZM7.29376 1.29289L6.16245 2.4242L7.57666 3.83842L8.70797 2.70711L7.29376 1.29289ZM6.16245 3.83842L7.29376 4.96973L8.70797 3.55552L7.57666 2.4242L6.16245 3.83842ZM8.70797 4.96973L9.83928 3.83842L8.42507 2.4242L7.29376 3.55552L8.70797 4.96973ZM9.27363 2.98957L8.70797 2.42391L7.29376 3.83812L7.85941 4.40378L9.27363 2.98957ZM7.29376 2.42391L6.7281 2.98957L8.14232 4.40378L8.70797 3.83812L7.29376 2.42391ZM6.72792 4.4036L7.29357 4.96955L8.70816 3.5557L8.1425 2.98975L6.72792 4.4036ZM8.70816 4.96955L9.27381 4.4036L7.85923 2.98975L7.29357 3.5557L8.70816 4.96955ZM11.8196 7.23291L12.9509 8.36422L14.3651 6.95001L13.2338 5.8187L11.8196 7.23291ZM12.9509 6.95001L11.8196 8.08132L13.2338 9.49553L14.3651 8.36422L12.9509 6.95001ZM13.2338 8.08132L12.1025 6.95001L10.6882 8.36422L11.8196 9.49553L13.2338 8.08132ZM10.6884 8.36441L11.2542 8.92989L12.6681 7.51531L12.1023 6.94982L10.6884 8.36441ZM12.6682 8.92971L13.2339 8.36405L11.8197 6.94984L11.254 7.5155L12.6682 8.92971ZM13.2339 6.94984L12.6683 6.38421L11.2541 7.79842L11.8197 8.36405L13.2339 6.94984ZM12.6683 7.79842L13.2338 7.23291L11.8196 5.8187L11.2541 6.38421L12.6683 7.79842ZM4.74768 6.3842L4.18217 5.8187L2.76795 7.23291L3.33346 7.79842L4.74768 6.3842ZM2.76795 5.8187L1.63664 6.95001L3.05086 8.36422L4.18217 7.23291L2.76795 5.8187ZM1.63664 8.36422L2.76795 9.49553L4.18217 8.08132L3.05086 6.95001L1.63664 8.36422ZM4.18217 9.49553L5.31348 8.36422L3.89927 6.95001L2.76795 8.08132L4.18217 9.49553ZM3.89945 6.94982L3.33367 7.51531L4.74751 8.92989L5.3133 8.36441L3.89945 6.94982ZM4.7477 7.5155L4.18204 6.94984L2.76783 8.36405L3.33348 8.92971L4.7477 7.5155ZM4.18204 8.36405L4.74768 7.79842L3.33346 6.3842L2.76783 6.94984L4.18204 8.36405ZM7.85941 12.3226L8.42507 12.8883L9.83928 11.4741L9.27363 10.9084L7.85941 12.3226ZM8.42507 11.4741L7.29376 12.6054L8.70797 14.0196L9.83928 12.8883L8.42507 11.4741ZM8.70797 12.6054L7.57666 11.4741L6.16245 12.8883L7.29376 14.0196L8.70797 12.6054ZM7.57666 12.8883L8.14232 12.3226L6.7281 10.9084L6.16245 11.4741L7.57666 12.8883ZM6.7281 12.3226L7.29376 12.8883L8.70797 11.4741L8.14232 10.9084L6.7281 12.3226ZM8.70797 12.8883L9.27363 12.3226L7.85941 10.9084L7.29376 11.4741L8.70797 12.8883Z"
      fill="currentColor"
      mask="url(#path-1-inside-1_2132_6645)" />
</svg>
