<svg width="16" height="16" viewBox="0 0 16 16" fill="none" xmlns="http://www.w3.org/2000/svg">
    <mask id="path-1-inside-1_2053_7906" fill="white">
      <path d="M12.2434 5.24264L10.8292 3.82843L10.1221 4.53553L11.5363 5.94975L12.2434 5.24264Z" />
      <path d="M5.87944 11.6066L4.46522 10.1924L3.75811 10.8995L5.17233 12.3137L5.87944 11.6066Z" />
      <path d="M5.17233 3.82843L5.87944 4.53553L4.46522 5.94975L3.75811 5.24264L5.17233 3.82843Z" />
      <path d="M12.2434 10.8995L11.5363 10.1924L10.1221 11.6066L10.8292 12.3137L12.2434 10.8995Z" />
      <path
        d="M9.41497 2.41421L8.00076 1L6.58654 2.41421L7.29365 3.12132L8.00076 2.41421L8.70786 3.12132L9.41497 2.41421Z" />
      <path
        d="M13.6576 6.65685L15.0718 8.07107L13.6576 9.48528L12.9505 8.77817L13.6576 8.07107L12.9505 7.36396L13.6576 6.65685Z" />
      <path
        d="M3.05101 7.36396L2.3439 6.65685L0.929688 8.07107L2.3439 9.48528L3.05101 8.77817L2.3439 8.07107L3.05101 7.36396Z" />
      <path
        d="M8.70786 13.0208L9.41497 13.7279L8.00076 15.1421L6.58654 13.7279L7.29365 13.0208L8.00076 13.7279L8.70786 13.0208Z" />
    </mask>
    <path
      d="M12.2434 5.24264L10.8292 3.82843L10.1221 4.53553L11.5363 5.94975L12.2434 5.24264Z"
      fill="currentColor" />
    <path
      d="M5.87944 11.6066L4.46522 10.1924L3.75811 10.8995L5.17233 12.3137L5.87944 11.6066Z"
      fill="currentColor" />
    <path
      d="M5.17233 3.82843L5.87944 4.53553L4.46522 5.94975L3.75811 5.24264L5.17233 3.82843Z"
      fill="currentColor" />
    <path
      d="M12.2434 10.8995L11.5363 10.1924L10.1221 11.6066L10.8292 12.3137L12.2434 10.8995Z"
      fill="currentColor" />
    <path
      d="M9.41497 2.41421L8.00076 1L6.58654 2.41421L7.29365 3.12132L8.00076 2.41421L8.70786 3.12132L9.41497 2.41421Z"
      fill="currentColor" />
    <path
      d="M13.6576 6.65685L15.0718 8.07107L13.6576 9.48528L12.9505 8.77817L13.6576 8.07107L12.9505 7.36396L13.6576 6.65685Z"
      fill="currentColor" />
    <path
      d="M3.05101 7.36396L2.3439 6.65685L0.929688 8.07107L2.3439 9.48528L3.05101 8.77817L2.3439 8.07107L3.05101 7.36396Z"
      fill="currentColor" />
    <path
      d="M8.70786 13.0208L9.41497 13.7279L8.00076 15.1421L6.58654 13.7279L7.29365 13.0208L8.00076 13.7279L8.70786 13.0208Z"
      fill="currentColor" />
    <path
      d="M12.2434 5.24264L12.9505 5.94975L13.6576 5.24264L12.9505 4.53553L12.2434 5.24264ZM10.8292 3.82843L11.5363 3.12132L10.8292 2.41421L10.1221 3.12132L10.8292 3.82843ZM10.1221 4.53553L9.41497 3.82843L8.70786 4.53553L9.41497 5.24264L10.1221 4.53553ZM11.5363 5.94975L10.8292 6.65685L11.5363 7.36396L12.2434 6.65685L11.5363 5.94975ZM5.87944 11.6066L6.58654 12.3137L7.29365 11.6066L6.58654 10.8995L5.87944 11.6066ZM4.46522 10.1924L5.17233 9.48528L4.46522 8.77817L3.75811 9.48528L4.46522 10.1924ZM3.75811 10.8995L3.05101 10.1924L2.3439 10.8995L3.05101 11.6066L3.75811 10.8995ZM5.17233 12.3137L4.46522 13.0208L5.17233 13.7279L5.87943 13.0208L5.17233 12.3137ZM5.17233 3.82843L5.87943 3.12132L5.17233 2.41421L4.46522 3.12132L5.17233 3.82843ZM5.87944 4.53553L6.58654 5.24264L7.29365 4.53553L6.58654 3.82843L5.87944 4.53553ZM4.46522 5.94975L3.75811 6.65685L4.46522 7.36396L5.17233 6.65685L4.46522 5.94975ZM3.75811 5.24264L3.05101 4.53553L2.3439 5.24264L3.05101 5.94975L3.75811 5.24264ZM12.2434 10.8995L12.9505 11.6066L13.6576 10.8995L12.9505 10.1924L12.2434 10.8995ZM11.5363 10.1924L12.2434 9.48528L11.5363 8.77817L10.8292 9.48528L11.5363 10.1924ZM10.1221 11.6066L9.41497 10.8995L8.70786 11.6066L9.41497 12.3137L10.1221 11.6066ZM10.8292 12.3137L10.1221 13.0208L10.8292 13.7279L11.5363 13.0208L10.8292 12.3137ZM9.41497 2.41421L10.1221 3.12132L10.8292 2.41421L10.1221 1.70711L9.41497 2.41421ZM8.00076 1L8.70786 0.292893L8.00076 -0.414214L7.29365 0.292893L8.00076 1ZM6.58654 2.41421L5.87944 1.70711L5.17233 2.41421L5.87943 3.12132L6.58654 2.41421ZM7.29365 3.12132L6.58654 3.82843L7.29365 4.53553L8.00075 3.82843L7.29365 3.12132ZM8.00076 2.41421L8.70786 1.70711L8.00076 1L7.29365 1.70711L8.00076 2.41421ZM8.70786 3.12132L8.00075 3.82843L8.70786 4.53553L9.41497 3.82843L8.70786 3.12132ZM13.6576 6.65685L14.3647 5.94975L13.6576 5.24264L12.9505 5.94975L13.6576 6.65685ZM15.0718 8.07107L15.7789 8.77817L16.486 8.07107L15.7789 7.36396L15.0718 8.07107ZM13.6576 9.48528L12.9505 10.1924L13.6576 10.8995L14.3647 10.1924L13.6576 9.48528ZM12.9505 8.77817L12.2434 8.07107L11.5363 8.77817L12.2434 9.48528L12.9505 8.77817ZM13.6576 8.07107L14.3647 8.77817L15.0718 8.07107L14.3647 7.36396L13.6576 8.07107ZM12.9505 7.36396L12.2434 6.65685L11.5363 7.36396L12.2434 8.07107L12.9505 7.36396ZM3.05101 7.36396L3.75811 8.07107L4.46522 7.36396L3.75811 6.65685L3.05101 7.36396ZM2.3439 6.65685L3.05101 5.94975L2.3439 5.24264L1.63679 5.94975L2.3439 6.65685ZM0.929688 8.07107L0.222581 7.36396L-0.484526 8.07107L0.222581 8.77817L0.929688 8.07107ZM2.3439 9.48528L1.63679 10.1924L2.3439 10.8995L3.05101 10.1924L2.3439 9.48528ZM3.05101 8.77817L3.75811 9.48528L4.46522 8.77817L3.75811 8.07107L3.05101 8.77817ZM2.3439 8.07107L1.63679 7.36396L0.929688 8.07107L1.63679 8.77817L2.3439 8.07107ZM8.70786 13.0208L9.41497 12.3137L8.70786 11.6066L8.00076 12.3137L8.70786 13.0208ZM9.41497 13.7279L10.1221 14.435L10.8292 13.7279L10.1221 13.0208L9.41497 13.7279ZM8.00076 15.1421L7.29365 15.8492L8.00076 16.5563L8.70786 15.8492L8.00076 15.1421ZM6.58654 13.7279L5.87944 13.0208L5.17233 13.7279L5.87943 14.435L6.58654 13.7279ZM7.29365 13.0208L8.00075 12.3137L7.29365 11.6066L6.58654 12.3137L7.29365 13.0208ZM8.00076 13.7279L7.29365 14.435L8.00076 15.1421L8.70786 14.435L8.00076 13.7279ZM12.9505 4.53553L11.5363 3.12132L10.1221 4.53553L11.5363 5.94975L12.9505 4.53553ZM10.1221 3.12132L9.41497 3.82843L10.8292 5.24264L11.5363 4.53553L10.1221 3.12132ZM9.41497 5.24264L10.8292 6.65685L12.2434 5.24264L10.8292 3.82843L9.41497 5.24264ZM12.2434 6.65685L12.9505 5.94975L11.5363 4.53553L10.8292 5.24264L12.2434 6.65685ZM6.58654 10.8995L5.17233 9.48528L3.75811 10.8995L5.17233 12.3137L6.58654 10.8995ZM3.75811 9.48528L3.05101 10.1924L4.46522 11.6066L5.17233 10.8995L3.75811 9.48528ZM3.05101 11.6066L4.46522 13.0208L5.87943 11.6066L4.46522 10.1924L3.05101 11.6066ZM5.87943 13.0208L6.58654 12.3137L5.17233 10.8995L4.46522 11.6066L5.87943 13.0208ZM4.46522 4.53553L5.17233 5.24264L6.58654 3.82843L5.87943 3.12132L4.46522 4.53553ZM5.17233 3.82843L3.75811 5.24264L5.17233 6.65685L6.58654 5.24264L5.17233 3.82843ZM5.17233 5.24264L4.46522 4.53553L3.05101 5.94975L3.75811 6.65685L5.17233 5.24264ZM4.46522 5.94975L5.87943 4.53553L4.46522 3.12132L3.05101 4.53553L4.46522 5.94975ZM12.9505 10.1924L12.2434 9.48528L10.8292 10.8995L11.5363 11.6066L12.9505 10.1924ZM10.8292 9.48528L9.41497 10.8995L10.8292 12.3137L12.2434 10.8995L10.8292 9.48528ZM9.41497 12.3137L10.1221 13.0208L11.5363 11.6066L10.8292 10.8995L9.41497 12.3137ZM11.5363 13.0208L12.9505 11.6066L11.5363 10.1924L10.1221 11.6066L11.5363 13.0208ZM10.1221 1.70711L8.70786 0.292893L7.29365 1.70711L8.70786 3.12132L10.1221 1.70711ZM7.29365 0.292893L5.87944 1.70711L7.29365 3.12132L8.70786 1.70711L7.29365 0.292893ZM5.87943 3.12132L6.58654 3.82843L8.00076 2.41421L7.29365 1.70711L5.87943 3.12132ZM8.00075 3.82843L8.70786 3.12132L7.29365 1.70711L6.58654 2.41421L8.00075 3.82843ZM7.29365 3.12132L8.00075 3.82843L9.41497 2.41421L8.70786 1.70711L7.29365 3.12132ZM9.41497 3.82843L10.1221 3.12132L8.70786 1.70711L8.00075 2.41421L9.41497 3.82843ZM12.9505 7.36396L14.3647 8.77817L15.7789 7.36396L14.3647 5.94975L12.9505 7.36396ZM14.3647 7.36396L12.9505 8.77817L14.3647 10.1924L15.7789 8.77817L14.3647 7.36396ZM14.3647 8.77817L13.6576 8.07107L12.2434 9.48528L12.9505 10.1924L14.3647 8.77817ZM13.6576 9.48528L14.3647 8.77817L12.9505 7.36396L12.2434 8.07107L13.6576 9.48528ZM14.3647 7.36396L13.6576 6.65685L12.2434 8.07107L12.9505 8.77817L14.3647 7.36396ZM13.6576 8.07107L14.3647 7.36396L12.9505 5.94975L12.2434 6.65685L13.6576 8.07107ZM3.75811 6.65685L3.05101 5.94975L1.63679 7.36396L2.3439 8.07107L3.75811 6.65685ZM1.63679 5.94975L0.222581 7.36396L1.63679 8.77817L3.05101 7.36396L1.63679 5.94975ZM0.222581 8.77817L1.63679 10.1924L3.05101 8.77817L1.63679 7.36396L0.222581 8.77817ZM3.05101 10.1924L3.75811 9.48528L2.3439 8.07107L1.63679 8.77817L3.05101 10.1924ZM3.75811 8.07107L3.05101 7.36396L1.63679 8.77817L2.3439 9.48528L3.75811 8.07107ZM3.05101 8.77817L3.75811 8.07107L2.3439 6.65685L1.63679 7.36396L3.05101 8.77817ZM8.00076 13.7279L8.70786 14.435L10.1221 13.0208L9.41497 12.3137L8.00076 13.7279ZM8.70786 13.0208L7.29365 14.435L8.70786 15.8492L10.1221 14.435L8.70786 13.0208ZM8.70786 14.435L7.29365 13.0208L5.87943 14.435L7.29365 15.8492L8.70786 14.435ZM7.29365 14.435L8.00075 13.7279L6.58654 12.3137L5.87944 13.0208L7.29365 14.435ZM6.58654 13.7279L7.29365 14.435L8.70786 13.0208L8.00075 12.3137L6.58654 13.7279ZM8.70786 14.435L9.41497 13.7279L8.00076 12.3137L7.29365 13.0208L8.70786 14.435Z"
      fill="currentColor"
      mask="url(#path-1-inside-1_2053_7906)" />
</svg>
