<svg width="16" height="16" viewBox="0 0 16 16" fill="none" xmlns="http://www.w3.org/2000/svg">
    <path
      fill-rule="evenodd"
      clip-rule="evenodd"
      d="M4.46484 5.34873V4.46484H5.34873V3.46484H3.46484V5.34873H4.46484ZM4.46484 7.11649H3.46484L3.46484 8.88426H4.46484V7.11649ZM4.46484 10.652H3.46484V12.5359H5.34873V11.5359H4.46484V10.652ZM7.11649 11.5359V12.5359H8.88426V11.5359H7.11649ZM10.652 11.5359V12.5359H12.5359V10.652H11.5359V11.5359H10.652ZM11.5359 8.88426H12.5359V7.11649H11.5359V8.88426ZM11.5359 5.34873V4.46484H10.652V3.46484H12.5359V5.34873H11.5359ZM8.88426 4.46484V3.46484L7.11649 3.46484V4.46484H8.88426Z"
      fill="currentColor" />
</svg>
