<svg width="16" height="16" viewBox="0 0 16 16" fill="none" xmlns="http://www.w3.org/2000/svg">
  <path
    fill="currentColor"
    d="M10.286 5.444c0 1.35-1.023 2.445-2.285 2.445-1.263 0-2.286-1.095-2.286-2.445C5.715 4.094 6.738 3 8 3c1.262 0 2.285 1.094 2.285 2.444ZM3.428 11.959c0-.986.552-1.88 1.43-2.182.937-.323 2.164-.668 3.141-.668.977 0 2.205.345 3.142.668.877.302 1.43 1.196 1.43 2.182v.817c0 .675-.512 1.222-1.143 1.222H4.57c-.632 0-1.143-.547-1.143-1.222v-.817Z" />
  <path
    fill="currentColor"
    fill-rule="evenodd"
    clip-rule="evenodd"
    d="M4.633 4.751a3.934 3.934 0 0 0 .264 2.253c-.3.53-.846.885-1.468.885-.947 0-1.714-.82-1.714-1.833s.767-1.833 1.714-1.833c.47 0 .895.201 1.204.528Z" />
  <path
    fill="currentColor"
    d="M2.286 12.776v-.817c0-1.108.474-2.181 1.31-2.845a3.429 3.429 0 0 0-.167-.005c-.733 0-1.654.259-2.357.501C.415 9.837 0 10.507 0 11.246v.613c0 .507.384.917.857.917h1.429Z" />
  <path
    fill="currentColor"
    fill-rule="evenodd"
    clip-rule="evenodd"
    d="M11.372 4.751a3.937 3.937 0 0 1-.263 2.253c.3.53.845.885 1.466.885.946 0 1.713-.82 1.713-1.833s-.767-1.833-1.713-1.833c-.468 0-.893.201-1.203.528Z" />
  <path
    fill="currentColor"
    d="M13.716 12.776v-.817c0-1.108-.474-2.181-1.31-2.845.057-.003.113-.005.168-.005.732 0 1.652.259 2.354.501.657.227 1.071.897 1.071 1.636v.613c0 .507-.383.917-.856.917h-1.427Z" />
</svg>
