<svg width="16" height="16" viewBox="0 0 16 16" fill="none" xmlns="http://www.w3.org/2000/svg">
    <path
      fill-rule="evenodd"
      clip-rule="evenodd"
      d="M9.03974 2.43089C8.90323 2.29428 8.74114 2.18592 8.56274 2.11199C8.38433 2.03805 8.19311 2 8 2C7.80689 2 7.61567 2.03805 7.43726 2.11199C7.25886 2.18592 7.09677 2.29428 6.96026 2.43089L2.4312 6.95976C2.29451 7.09631 2.18606 7.25846 2.11207 7.43696C2.03808 7.61545 2 7.80678 2 8C2 8.19322 2.03808 8.38455 2.11207 8.56305C2.18606 8.74154 2.29451 8.90369 2.4312 9.04024L6.96026 13.5691C7.09677 13.7057 7.25886 13.8141 7.43726 13.888C7.61567 13.9619 7.80689 14 8 14C8.19311 14 8.38433 13.9619 8.56274 13.888C8.74114 13.8141 8.90323 13.7057 9.03974 13.5691L13.5688 9.04024C13.7055 8.90369 13.8139 8.74154 13.8879 8.56305C13.9619 8.38455 14 8.19322 14 8C14 7.80678 13.9619 7.61545 13.8879 7.43696C13.8139 7.25846 13.7055 7.09631 13.5688 6.95976L9.03974 2.43089Z"
      fill="currentColor" />
    <path
      fill-rule="evenodd"
      clip-rule="evenodd"
      d="M8 9.5C7.80109 9.5 7.61032 9.42098 7.46967 9.28033C7.32902 9.13968 7.25 8.94891 7.25 8.75V5C7.25 4.80109 7.32902 4.61032 7.46967 4.46967C7.61032 4.32902 7.80109 4.25 8 4.25C8.19891 4.25 8.38968 4.32902 8.53033 4.46967C8.67098 4.61032 8.75 4.80109 8.75 5V8.75C8.75 8.94891 8.67098 9.13968 8.53033 9.28033C8.38968 9.42098 8.19891 9.5 8 9.5ZM8 11.75C7.80109 11.75 7.61032 11.671 7.46967 11.5303C7.32902 11.3897 7.25 11.1989 7.25 11C7.25 10.8011 7.32902 10.6103 7.46967 10.4697C7.61032 10.329 7.80109 10.25 8 10.25C8.19891 10.25 8.38968 10.329 8.53033 10.4697C8.67098 10.6103 8.75 10.8011 8.75 11C8.75 11.1989 8.67098 11.3897 8.53033 11.5303C8.38968 11.671 8.19891 11.75 8 11.75Z"
      fill="white" />
</svg>
